<svg xmlns="http://www.w3.org/2000/svg" xmlns:xlink="http://www.w3.org/1999/xlink" width="40" height="40" viewBox="0 0 40 40"><defs><path id="qyrta" d="M174 1377a4 4 0 0 1-4-4h-16a4 4 0 0 1-8 0 4 4 0 0 1-4-4v-10a6 6 0 0 1 4-5.66V1347a10 10 0 0 1 10-10h12a10 10 0 0 1 10 10v6.34a6 6 0 0 1 4 5.66v10a4 4 0 0 1-4 4 4 4 0 0 1-4 4zm4-8v-10a2 2 0 1 0-4 0v2a2 2 0 0 1-2.75 1.85c-.12-.05-5.14-1.85-9.25-1.85-4.12 0-9.14 1.81-9.27 1.86A2 2 0 0 1 150 1361v-2a2 2 0 0 0-4 0v10h24zm-24.04-10.7s4.38-1.34 8.04-1.3c3.66.04 8.08 1.25 8.08 1.25 0-2 1.62-4.1 3.92-4.91V1347a6 6 0 0 0-6-6h-12a6 6 0 0 0-6 6v6.34a6.02 6.02 0 0 1 3.96 4.96zm2.04-7.3a2 2 0 1 1 0-4 2 2 0 0 1 0 4zm12 0a2 2 0 1 1 0-4 2 2 0 0 1 0 4z"/><linearGradient id="qyrtb" x1="182" x2="142" y1="1358.72" y2="1358.72" gradientUnits="userSpaceOnUse"><stop offset="0" stop-color="#a67655"/><stop offset="1" stop-color="#c19f63"/></linearGradient></defs><g><g transform="translate(-142 -1337)"><use fill="url(#qyrtb)" xlink:href="#qyrta"/></g></g></svg>