<svg xmlns="http://www.w3.org/2000/svg" xmlns:xlink="http://www.w3.org/1999/xlink" width="37" height="23" viewBox="0 0 37 23"><defs><path id="heola" d="M377.88 5549.8c0 2.54-2.07 4.6-4.63 4.6a4.61 4.61 0 0 1-4.62-4.6c0-2.54 2.07-4.6 4.63-4.6a4.6 4.6 0 0 1 4.62 4.6zm-1.31 0a3.3 3.3 0 0 0-3.3-3.3 3.3 3.3 0 1 0 0 6.6 3.3 3.3 0 0 0 3.3-3.3z"/><path id="heolb" d="M370.94 5549.8a2.3 2.3 0 0 1 2.31-2.3 2.3 2.3 0 0 1 2.32 2.3 2.3 2.3 0 0 1-2.31 2.3 2.3 2.3 0 0 1-2.32-2.3z"/><path id="heolc" d="M391.75 5545.2a4.61 4.61 0 0 1 4.63 4.6c0 2.54-2.07 4.6-4.63 4.6a4.61 4.61 0 0 1-4.62-4.6c0-2.54 2.07-4.6 4.63-4.6zm3.31 4.6a3.3 3.3 0 0 0-3.3-3.3 3.3 3.3 0 1 0 0 6.6 3.3 3.3 0 0 0 3.3-3.3z"/><path id="heold" d="M389.44 5549.8a2.3 2.3 0 0 1 2.31-2.3 2.3 2.3 0 0 1 2.32 2.3 2.3 2.3 0 0 1-2.31 2.3 2.3 2.3 0 0 1-2.32-2.3z"/><path id="heole" d="M401 5549.78c0 5.09-4.15 9.21-9.26 9.21a9.26 9.26 0 0 1-6.16-2.33l.04.08-3.1 2.25-3.14-2.3a9.24 9.24 0 0 1-6.12 2.31 9.23 9.23 0 0 1-9.26-9.2 9.15 9.15 0 0 1 2.72-6.53l-2.72-2.69h5.53c3.1-2.5 8.19-4.58 12.95-4.58s9.9 2.08 12.99 4.58h5.52l-2.73 2.69a9.19 9.19 0 0 1 2.74 6.51zm-18.52-11.48c-3.07 0-5.88.77-8.1 2.35a9.23 9.23 0 0 1 8.12 8.59 9.23 9.23 0 0 1 8.08-8.59 13.8 13.8 0 0 0-8.1-2.35zm-2.27 11.5a6.93 6.93 0 0 0-6.95-6.92 6.93 6.93 0 0 0-6.95 6.91c0 3.82 3.1 6.91 6.95 6.91 3.83 0 6.94-3.1 6.95-6.9zm18.49 0a6.93 6.93 0 0 0-6.95-6.92 6.93 6.93 0 0 0-6.95 6.91 6.93 6.93 0 0 0 6.95 6.91c3.83 0 6.94-3.1 6.95-6.9z"/></defs><g><g transform="translate(-364 -5536)"><g><use fill="#fff" xlink:href="#heola"/></g><g><use fill="#fff" xlink:href="#heolb"/></g><g><use fill="#fff" xlink:href="#heolc"/></g><g><use fill="#fff" xlink:href="#heold"/></g><g><use fill="#fff" xlink:href="#heole"/></g></g></g></svg>