<svg xmlns="http://www.w3.org/2000/svg" xmlns:xlink="http://www.w3.org/1999/xlink" width="23" height="23" viewBox="0 0 23 23"><defs><path id="zno5a" d="M166.6 5546.87l.38.2a5.26 5.26 0 0 1 2.88 3.88 6.45 6.45 0 0 1-1.06 5.17 6.68 6.68 0 0 1-3.64 2.45c-.95.29-1.92.43-2.9.43h-8.24l-.01-.26-.01-20.37c0-1.25 1.1-2.35 2.34-2.36 2.04 0 4.07-.03 6.1.01 1.7.04 3.28.47 4.63 1.55a5.22 5.22 0 0 1 1.96 3.44 6 6 0 0 1-.93 4.33c-.35.54-.83.96-1.32 1.37l-.19.16zm-8.12 8.2l.07.01c1.38 0 2.76.04 4.14-.01a2.6 2.6 0 0 0 2.38-1.5c.35-.74.42-1.52.28-2.31a2.68 2.68 0 0 0-1.42-2 3.32 3.32 0 0 0-1.57-.37h-2.46c-.9 0-1.42.5-1.42 1.4-.02 1.54 0 3.08 0 4.63v.14zm0-9.78c1.26 0 2.47.03 3.7 0a2.26 2.26 0 0 0 1.86-1c.45-.65.55-1.38.51-2.14a2.38 2.38 0 0 0-2.27-2.3c-.77-.04-1.54-.04-2.3-.03-1.03.02-1.5.53-1.5 1.55V5545.3z"/><path id="zno5b" d="M174.5 5559c-1.25.02-2.48-1.14-2.5-3-.02-1.66 1.13-3 2.5-3 1.38 0 2.5 1.35 2.5 3 0 1.66-1.13 3-2.5 3z"/></defs><g><g transform="translate(-154 -5536)"><use fill="#fff" xlink:href="#zno5a"/></g><g transform="translate(-154 -5536)"><use fill="#fff" xlink:href="#zno5b"/></g></g></svg>