<svg xmlns="http://www.w3.org/2000/svg" xmlns:xlink="http://www.w3.org/1999/xlink" width="13" height="14" viewBox="0 0 13 14"><defs><path id="h441a" d="M1134.7 34.5h-4.9v-1.4h4.9zm3.5-5.6h-9.8v7.7h9.8zm0-3.5c.77 0 1.4.63 1.4 1.4v9.8c0 .77-.63 1.4-1.4 1.4h-9.8a1.4 1.4 0 0 1-1.4-1.4v-9.8c0-.77.62-1.4 1.4-1.4h.7V24h1.4v1.4h5.6V24h1.4v1.4zm-1.4 6.3h-7v-1.4h7z"/><linearGradient id="h441b" x1="1139.6" x2="1127" y1="31.6" y2="31.6" gradientUnits="userSpaceOnUse"><stop offset="0" stop-color="#a67655"/><stop offset="1" stop-color="#c19f63"/></linearGradient></defs><g><g transform="translate(-1127 -24)"><use fill="url(#h441b)" xlink:href="#h441a"/></g></g></svg>