<svg xmlns="http://www.w3.org/2000/svg" xmlns:xlink="http://www.w3.org/1999/xlink" width="46" height="58" viewBox="0 0 46 58"><defs><path id="8z4ya" d="M173.94 1522.13c0 9.33-7.59 16.92-16.92 16.92-9.33 0-16.92-7.59-16.92-16.92 0-1.02.83-1.85 1.85-1.85h30.14c1.02 0 1.85.83 1.85 1.85zm-3.83 1.86h-26.17a13.24 13.24 0 0 0 13.08 11.36c6.66 0 12.18-4.95 13.09-11.36z"/><path id="8z4yc" d="M171.81 1546.53l-5.12-11.98a1.85 1.85 0 0 0-3.41 1.46l5.13 11.98a1.85 1.85 0 1 0 3.4-1.46z"/><path id="8z4ye" d="M149.78 1533.58c-.95-.4-2.03.03-2.43.97l-5.13 11.98a1.85 1.85 0 0 0 3.4 1.46l5.13-11.98c.4-.94-.03-2.03-.97-2.43z"/><path id="8z4yg" d="M157.01 1501.82c-1.02 0-1.85.83-1.85 1.85v12.85a1.85 1.85 0 1 0 3.7 0v-12.85c0-1.02-.82-1.85-1.85-1.85z"/><path id="8z4yi" d="M164.73 1507.62c-1.02 0-1.85.83-1.85 1.85v7.04a1.85 1.85 0 1 0 3.7 0v-7.04c0-1.02-.82-1.85-1.85-1.85z"/><path id="8z4yk" d="M149.3 1507.62c-1.02 0-1.85.83-1.85 1.85v7.04a1.85 1.85 0 1 0 3.7 0v-7.04c0-1.02-.82-1.85-1.85-1.85z"/><path id="8z4ym" d="M185.55 1508.11c0 8.86-6.07 16.06-13.53 16.06a1.85 1.85 0 0 1-1.85-1.85v-28.35c0-1.02.83-1.85 1.85-1.85 7.46 0 13.53 7.18 13.53 16zm-3.7 0c0-5.98-3.44-10.98-7.97-12.07v24.2c4.53-1.09 7.96-6.11 7.96-12.13z"/><path id="8z4yo" d="M145.66 1544.8v-3.71h22.85v3.71z"/><linearGradient id="8z4yb" x1="173.94" x2="140.1" y1="1530.47" y2="1530.47" gradientUnits="userSpaceOnUse"><stop offset="0" stop-color="#a67655"/><stop offset="1" stop-color="#c19f63"/></linearGradient><linearGradient id="8z4yd" x1="171.96" x2="163.13" y1="1541.95" y2="1541.95" gradientUnits="userSpaceOnUse"><stop offset="0" stop-color="#a67655"/><stop offset="1" stop-color="#c19f63"/></linearGradient><linearGradient id="8z4yf" x1="150.9" x2="142.07" y1="1541.95" y2="1541.95" gradientUnits="userSpaceOnUse"><stop offset="0" stop-color="#a67655"/><stop offset="1" stop-color="#c19f63"/></linearGradient><linearGradient id="8z4yh" x1="158.87" x2="155.16" y1="1510.81" y2="1510.81" gradientUnits="userSpaceOnUse"><stop offset="0" stop-color="#a67655"/><stop offset="1" stop-color="#c19f63"/></linearGradient><linearGradient id="8z4yj" x1="166.59" x2="162.88" y1="1513.46" y2="1513.46" gradientUnits="userSpaceOnUse"><stop offset="0" stop-color="#a67655"/><stop offset="1" stop-color="#c19f63"/></linearGradient><linearGradient id="8z4yl" x1="151.16" x2="147.45" y1="1513.46" y2="1513.46" gradientUnits="userSpaceOnUse"><stop offset="0" stop-color="#a67655"/><stop offset="1" stop-color="#c19f63"/></linearGradient><linearGradient id="8z4yn" x1="185.55" x2="170.17" y1="1509.52" y2="1509.52" gradientUnits="userSpaceOnUse"><stop offset="0" stop-color="#a67655"/><stop offset="1" stop-color="#c19f63"/></linearGradient><linearGradient id="8z4yp" x1="168.51" x2="145.66" y1="1543.1" y2="1543.1" gradientUnits="userSpaceOnUse"><stop offset="0" stop-color="#a67655"/><stop offset="1" stop-color="#c19f63"/></linearGradient></defs><g><g transform="translate(-140 -1492)"><g><use fill="url(#8z4yb)" xlink:href="#8z4ya"/></g><g><use fill="url(#8z4yd)" xlink:href="#8z4yc"/></g><g><use fill="url(#8z4yf)" xlink:href="#8z4ye"/></g><g><use fill="url(#8z4yh)" xlink:href="#8z4yg"/></g><g><use fill="url(#8z4yj)" xlink:href="#8z4yi"/></g><g><use fill="url(#8z4yl)" xlink:href="#8z4yk"/></g><g><use fill="url(#8z4yn)" xlink:href="#8z4ym"/></g><g><use fill="url(#8z4yp)" xlink:href="#8z4yo"/></g></g></g></svg>