<svg xmlns="http://www.w3.org/2000/svg" xmlns:xlink="http://www.w3.org/1999/xlink" width="29" height="23" viewBox="0 0 29 23"><defs><path id="la72a" d="M1147.6 5552.97v-12.94l8.7 6.47zm14.5-17.4c-.87-.28-6.24-.57-11.6-.57-5.37 0-10.73.27-11.6.55-2.26.74-2.9 5.78-2.9 10.95 0 5.16.64 10.2 2.9 10.94.87.29 6.24.56 11.6.56 5.37 0 10.73-.27 11.6-.56 2.26-.73 2.9-5.78 2.9-10.94 0-5.17-.64-10.2-2.9-10.93z"/><linearGradient id="la72b" x1="1165" x2="1136" y1="5547.49" y2="5547.49" gradientUnits="userSpaceOnUse"><stop offset="0" stop-color="#a67655"/><stop offset="1" stop-color="#c19f63"/></linearGradient></defs><g><g transform="translate(-1136 -5535)"><use fill="url(#la72b)" xlink:href="#la72a"/></g></g></svg>