<svg xmlns="http://www.w3.org/2000/svg" xmlns:xlink="http://www.w3.org/1999/xlink" width="20" height="22" viewBox="0 0 20 22"><defs><path id="601ta" d="M969 667.96l6-1.96 6 1.96V664h-12zm-3.95 2.35c-.08-.25-.05-.53.06-.77.13-.24.34-.42.6-.5l1.29-.42V664c0-1.1.9-2 2-2h3v-3h6v3h3a2 2 0 0 1 2 2v4.62l1.29.42c.26.08.47.26.6.5.11.24.14.52.06.77l-1.9 6.69H983c-1.6 0-3-.88-4-2-1 1.12-2.4 2-4 2s-3-.88-4-2c-1 1.12-2.4 2-4 2h-.06zM985 679v2h-2a8.71 8.71 0 0 1-4-1 8.7 8.7 0 0 1-8 0c-1.26.65-2.63 1-4 1h-2v-2h2c1.39 0 2.78-.47 4-1.33a6.88 6.88 0 0 0 8 0 6.97 6.97 0 0 0 4 1.33z"/></defs><g><g transform="translate(-965 -659)"><use fill="#fff" xlink:href="#601ta"/></g></g></svg>