<svg xmlns="http://www.w3.org/2000/svg" xmlns:xlink="http://www.w3.org/1999/xlink" width="18" height="18" viewBox="0 0 18 18"><defs><path id="fr7va" d="M549.62 6356.79a15.1 15.1 0 0 0 6.59 6.59l2.2-2.2a1 1 0 0 1 1.02-.25c1.12.37 2.32.57 3.57.57a1 1 0 0 1 1 1v3.5a1 1 0 0 1-1 1 17 17 0 0 1-17-17 1 1 0 0 1 1-1h3.5a1 1 0 0 1 1 1c0 1.25.2 2.45.57 3.57a1 1 0 0 1-.25 1.02z"/><linearGradient id="fr7vb" x1="564" x2="546" y1="6358.77" y2="6358.77" gradientUnits="userSpaceOnUse"><stop offset="0" stop-color="#a67655"/><stop offset="1" stop-color="#c19f63"/></linearGradient></defs><g><g transform="translate(-546 -6349)"><use fill="url(#fr7vb)" xlink:href="#fr7va"/></g></g></svg>