<svg xmlns="http://www.w3.org/2000/svg" xmlns:xlink="http://www.w3.org/1999/xlink" width="18" height="18" viewBox="0 0 18 18"><defs><path id="jx0da" d="M1068 4068a2 2 0 0 1 2 2v14a2 2 0 0 1-2 2h-14a2 2 0 0 1-2-2v-14c0-1.1.9-2 2-2zm-1.76 11.03c-1.18-1.09-1.02-.92.4-2.81.86-1.15 1.21-1.85 1.1-2.15-.11-.28-.74-.21-.74-.21l-2.11.02s-.16-.03-.27.04a.64.64 0 0 0-.19.23s-.34.89-.78 1.65c-.94 1.59-1.32 1.67-1.47 1.58-.35-.23-.27-.93-.27-1.43 0-1.54.24-2.19-.45-2.35-.23-.06-.4-.1-.99-.1-.75 0-1.39 0-1.75.18-.22.12-.43.38-.31.39.14.02.45.09.62.32.22.29.21.95.21.95s.12 1.82-.29 2.05c-.29.15-.68-.17-1.51-1.61-.44-.74-.76-1.56-.76-1.56l-.18-.22-.31-.15h-2.01s-.3 0-.41.15c-.1.1-.01.32-.01.32s1.57 3.64 3.35 5.48c1.63 1.7 3.48 1.51 3.48 1.51h.84s.25.05.38-.08c.12-.13.12-.29.12-.29s-.02-1.13.5-1.29c.52-.15 1.18 1.08 1.88 1.57.53.36.93.28.93.28l1.88-.03s.98-.06.51-.83c-.03-.06-.27-.57-1.39-1.61z"/></defs><g><g transform="translate(-1052 -4068)"><use fill="#fff" xlink:href="#jx0da"/></g></g></svg>