<svg xmlns="http://www.w3.org/2000/svg" xmlns:xlink="http://www.w3.org/1999/xlink" width="18" height="18" viewBox="0 0 18 18"><defs><path id="9m0ca" d="M148.43 4075.94a6.14 6.14 0 0 0 1.94 2.47c-.87.16-2.07.44-3.34.93l-.11.04c.08-.3.3-.66.5-1.04.45-.87.78-1.66 1.01-2.4zm6.48 3.81a.97.97 0 0 0 .28-.66.8.8 0 0 0-.12-.55c-.29-.47-1.04-.69-2.28-.69-.41 0-.84.02-1.29.07a7.3 7.3 0 0 1-.87-.58 5.9 5.9 0 0 1-1.6-2.56l.04-.14c.33-1.33.64-2.94-.02-3.6a.85.85 0 0 0-.61-.24h-.24c-.37 0-.7.39-.79.77-.37 1.33-.15 2.06.22 3.27v.01c-.25.88-.57 1.9-1.08 2.93-.34.67-.66 1.28-.96 1.8-.4.19-.7.35-.89.49-1.2.75-1.77 1.59-1.88 2.12a.9.9 0 0 0 .05.54l.03.05.48.31a.9.9 0 0 0 .44.11c.81 0 1.73-.95 2.97-3.07l.18-.07c1.03-.33 2.31-.56 4.03-.75 1 .51 2.24.74 3 .74.44 0 .74-.11.91-.3zM156 4068a2 2 0 0 1 2 2v14a2 2 0 0 1-2 2h-14a2 2 0 0 1-2-2v-14a2 2 0 0 1 2-2zm-1.5 11.04c.05.04.07.08.09.11-.01.1-.04.11-.09.13h-.04l-.19.02c-.46 0-1.17-.19-1.9-.51.09-.1.16-.1.23-.1 1.4 0 1.8.25 1.9.35zm-9.17 1.46c-.65 1.19-1.24 1.85-1.69 2 .05-.38.5-1.04 1.21-1.69.1-.08.27-.19.48-.31zm2.95-8.96l.07-.12.15.05c.17.24.19.53.09 1.1l-.03.16c-.06.22-.09.5-.16.82l-.05.04c-.23-.9-.24-1.63-.07-2.05z"/></defs><g><g transform="translate(-140 -4068)"><use fill="#fff" xlink:href="#9m0ca"/></g></g></svg>