<svg xmlns="http://www.w3.org/2000/svg" xmlns:xlink="http://www.w3.org/1999/xlink" width="22" height="18" viewBox="0 0 22 18"><defs><path id="dxz6a" d="M1030.74 3164.35a3.5 3.5 0 1 1 3.98 5.43 9 9 0 1 1-17.44 0 3.5 3.5 0 1 1 3.98-5.43 9 9 0 0 1 9.48 0zM1019 3172a7 7 0 1 0 13.99.01 7 7 0 0 0-13.99-.01zm10.15 1.16c-.94.26-1.98-.62-2.34-1.96-.36-1.33.11-2.61 1.04-2.86.94-.25 1.98.62 2.34 1.96.36 1.33-.11 2.61-1.04 2.86zm-5-4.82c.93.25 1.4 1.53 1.04 2.86-.36 1.34-1.4 2.22-2.34 1.96-.93-.25-1.4-1.53-1.04-2.86.36-1.34 1.4-2.21 2.34-1.96zm1.85 5.66c.6 0 1.13.19 1.5.5l-1 1a.75.75 0 1 0 1.5 0c0-.28.22-.5.5-.5s.5.22.5.5a1.75 1.75 0 0 1-3 1.22 1.75 1.75 0 0 1-3-1.22c0-.28.22-.5.5-.5s.5.22.5.5c0 .41.34.75.75.75s.75-.34.75-.75l-1-1c.37-.31.9-.5 1.5-.5z"/></defs><g><g transform="translate(-1015 -3163)"><use fill="#fff" xlink:href="#dxz6a"/></g></g></svg>