<svg xmlns="http://www.w3.org/2000/svg" xmlns:xlink="http://www.w3.org/1999/xlink" width="16" height="23" viewBox="0 0 16 23"><defs><path id="rq5ua" d="M606.8 1189.98a.68.68 0 0 1-.65.54h-4.64a.97.97 0 0 0-.95.97v.58c0 .54.43.98.95.98h3.93c.36 0 .67.36.6.76l-.54 2.7a.66.66 0 0 1-.65.54h-3.2c-.68.01-.82.03-1.21.53l-3.92 5.04c-.03.05-.06.03-.06-.01v-15.41c0-.37.3-.67.64-.67h9.65c.34 0 .67.35.58.8zm-10.67-5.98c-1.64 0-2.13 1.27-2.13 2.08v19.48c0 .96.47 1.25.73 1.36.26.1.95.19 1.44-.32l5.75-6.9c.1-.1.14-.1.2-.1h3.58c1.52 0 1.81-1.09 1.98-1.75.14-.55 1.71-8.42 2.2-10.9.37-1.93-.1-2.95-1.85-2.95h-11.9z"/></defs><g><g transform="translate(-594 -1184)"><use fill="#fff" xlink:href="#rq5ua"/></g></g></svg>