<svg xmlns="http://www.w3.org/2000/svg" xmlns:xlink="http://www.w3.org/1999/xlink" width="21" height="17" viewBox="0 0 21 17"><defs><path id="nyl2a" d="M765.92 2775c-.77.35-1.6.58-2.46.69a4.3 4.3 0 0 0 1.88-2.38c-.83.5-1.75.85-2.72 1.05a4.28 4.28 0 0 0-7.32 3.91 12.2 12.2 0 0 1-8.84-4.48 4.24 4.24 0 0 0 1.33 5.71c-.71 0-1.37-.2-1.95-.5v.03a4.3 4.3 0 0 0 3.44 4.21 4.22 4.22 0 0 1-1.93.07 4.28 4.28 0 0 0 4 2.98 8.52 8.52 0 0 1-6.35 1.78 12.14 12.14 0 0 0 6.58 1.93c7.88 0 12.21-6.54 12.21-12.21l-.01-.56a8.57 8.57 0 0 0 2.14-2.23z"/></defs><g><g transform="translate(-745 -2773)"><use fill="#fff" xlink:href="#nyl2a"/></g></g></svg>