<svg xmlns="http://www.w3.org/2000/svg" xmlns:xlink="http://www.w3.org/1999/xlink" width="22" height="18" viewBox="0 0 22 18"><defs><path id="1t3ca" d="M1003 381l-3.6-4.8a5.99 5.99 0 0 1 7.2 0zm0-18c4.05 0 7.79 1.34 10.8 3.6l-1.8 2.4c-2.5-1.88-5.62-3-9-3s-6.5 1.12-9 3l-1.8-2.4a17.93 17.93 0 0 1 10.8-3.6zm7.2 8.4l-1.8 2.4a8.94 8.94 0 0 0-10.8 0l-1.8-2.4c2.01-1.51 4.5-2.4 7.2-2.4s5.19.89 7.2 2.4z"/></defs><g><g transform="translate(-992 -363)"><use fill="#9f9f9f" xlink:href="#1t3ca"/></g></g></svg>