<svg xmlns="http://www.w3.org/2000/svg" xmlns:xlink="http://www.w3.org/1999/xlink" width="18" height="16" viewBox="0 0 18 16"><defs><path id="dpkfa" d="M142 668l1.5-4.5h11l1.5 4.5zm11 3.5a1.5 1.5 0 1 1 3 0 1.5 1.5 0 0 1-3 0zm-11 0a1.5 1.5 0 1 1 3 0 1.5 1.5 0 0 1-3 0zm13.92-8.5c-.2-.58-.76-1-1.42-1h-11a1.5 1.5 0 0 0-1.42 1l-2.08 6v8a1 1 0 0 0 1 1h1a1 1 0 0 0 1-1v-1h12v1a1 1 0 0 0 1 1h1a1 1 0 0 0 1-1v-8z"/></defs><g><g transform="translate(-140 -662)"><use fill="#fff" xlink:href="#dpkfa"/></g></g></svg>