<svg xmlns="http://www.w3.org/2000/svg" xmlns:xlink="http://www.w3.org/1999/xlink" width="23" height="23" viewBox="0 0 23 23"><defs><path id="8a6ya" d="M1253.33 5535a6.67 6.67 0 0 1 6.67 6.67v9.66a6.67 6.67 0 0 1-6.67 6.67h-9.66a6.67 6.67 0 0 1-6.67-6.67v-9.66a6.67 6.67 0 0 1 6.67-6.67zm-14.03 6.44v10.12a4.14 4.14 0 0 0 4.14 4.14h10.12a4.14 4.14 0 0 0 4.14-4.14v-10.12a4.14 4.14 0 0 0-4.14-4.14h-10.12a4.14 4.14 0 0 0-4.14 4.14zm16.67-.98a1.44 1.44 0 1 1-2.87 0 1.44 1.44 0 0 1 2.88 0zm-1.72 6.04a5.75 5.75 0 1 1-11.5 0 5.75 5.75 0 0 1 11.5 0zm-5.75-3.45a3.45 3.45 0 1 0 0 6.9 3.45 3.45 0 0 0 0-6.9z"/><linearGradient id="8a6yb" x1="1260" x2="1237" y1="5547.49" y2="5547.49" gradientUnits="userSpaceOnUse"><stop offset="0" stop-color="#a67655"/><stop offset="1" stop-color="#c19f63"/></linearGradient></defs><g><g transform="translate(-1237 -5535)"><use fill="url(#8a6yb)" xlink:href="#8a6ya"/></g></g></svg>