<svg xmlns="http://www.w3.org/2000/svg" xmlns:xlink="http://www.w3.org/1999/xlink" width="20" height="20" viewBox="0 0 20 20"><defs><path id="aor5a" d="M737 744.5v5.5h1v-2.5a1 1 0 0 1 1-1 1 1 0 0 1 1 1v2.5h1v-5.5zm4-3c0-.3-.26-.94-.48-1.15l-1.51-1.53-1.53 1.53c-.22.21-.48.85-.48 1.15v1h4zm-1-4.5l1.94 1.94c.4.4.74 1.05.93 1.7l1.13-1.14v-2a1 1 0 0 1 1-1 1 1 0 0 1 1 1v2l1.94 1.94A4.15 4.15 0 0 1 749 744v7a1 1 0 0 1-1 1h-18a1 1 0 0 1-1-1v-7c0-.83.47-1.97 1.06-2.56l1.94-1.94v-2a1 1 0 0 1 1-1 1 1 0 0 1 1 1v2l1.13 1.13c.19-.64.53-1.3.93-1.7L738 737v-1h-1a1 1 0 1 1 0-2h1v-1a1 1 0 1 1 2 0v1h1a1 1 0 1 1 0 2h-1zm-5 13v-6c0-.3-.26-.93-.48-1.15l-1.52-1.52-1.52 1.52A2.3 2.3 0 0 0 731 744v6h1v-2.5a1 1 0 0 1 1-1 1 1 0 0 1 1 1v2.5zm12 0v-6c0-.3-.26-.93-.48-1.15l-1.52-1.52-1.52 1.52A2.3 2.3 0 0 0 743 744v6h1v-2.5a1 1 0 0 1 1-1 1 1 0 0 1 1 1v2.5z"/><linearGradient id="aor5b" x1="749" x2="729" y1="742.86" y2="742.86" gradientUnits="userSpaceOnUse"><stop offset="0" stop-color="#a67655"/><stop offset="1" stop-color="#c19f63"/></linearGradient></defs><g><g transform="translate(-729 -732)"><g><use fill="url(#aor5b)" xlink:href="#aor5a"/></g></g></g></svg>