<svg xmlns="http://www.w3.org/2000/svg" xmlns:xlink="http://www.w3.org/1999/xlink" width="20" height="20" viewBox="0 0 20 20"><defs><path id="2byla" d="M643.01 442.36l9.06 5.31c.23.14.36.44.29.7a.64.64 0 0 1-.6.46h-18.13a.64.64 0 0 1-.6-.46.64.64 0 0 1 .27-.7l9.07-5.31a.63.63 0 0 1 .64 0zm-1.57 3.2c0 .68.57 1.25 1.25 1.25s1.25-.57 1.25-1.25-.57-1.25-1.25-1.25-1.25.57-1.25 1.25zm-4.38 3.9c.25 0 .49.16.58.39.1.22.03.5-.14.67l-.44.44v6.62c0 .33-.3.63-.62.63h-1.25a.65.65 0 0 1-.63-.63v-6.6l-.45-.46a.64.64 0 0 1-.14-.65c.08-.22.3-.39.53-.41zm6.89 0a.63.63 0 0 1 .44 1.06l-.44.44v6.62c0 .33-.3.63-.63.63h-1.26a.65.65 0 0 1-.62-.63v-6.6l-.45-.46a.64.64 0 0 1-.15-.65c.08-.22.3-.39.53-.41zm6.87 0a.63.63 0 1 1 .44 1.06l-.44.44v6.62c0 .33-.3.63-.62.63h-1.25a.65.65 0 0 1-.63-.63v-6.6l-.45-.46a.64.64 0 0 1-.14-.65c.08-.22.29-.39.52-.41zm0 9.37c.33 0 .64.3.64.63s-.3.63-.64.62h-16.26a.64.64 0 0 1-.65-.58.65.65 0 0 1 .59-.67zm.63 1.88c.33 0 .63.3.63.62 0 .33-.3.63-.63.63h-17.51a.64.64 0 0 1-.66-.59.65.65 0 0 1 .59-.66z"/></defs><g><g transform="translate(-633 -442)"><use fill="#c19f63" xlink:href="#2byla"/></g></g></svg>