<svg xmlns="http://www.w3.org/2000/svg" xmlns:xlink="http://www.w3.org/1999/xlink" width="22" height="17" viewBox="0 0 22 17"><defs><path id="az6ra" d="M608.25 265.21v9.5a.7.7 0 0 1-.7.69H587.7a.7.7 0 0 1-.69-.7v-10.8c0-.9.58-1.69 1.39-2v-.82a.7.7 0 0 1 .2-.5l1.38-1.38a.7.7 0 0 1 .5-.2h2.77a.7.7 0 0 1 .49.2l1.18 1.19h3.18c.26 0 .5.14.62.38l.69 1.38c.05.1.07.2.07.31v.7h.7c1.14 0 2.07.93 2.07 2.08V268h1.16a.7.7 0 0 1 .49.2l.2.2v-3.17a.7.7 0 0 1 .2-.5l1.4-1.38a.7.7 0 0 1 .48-.2h.02c1.14 0 2.06.92 2.06 2.05zm-1.39 8.8v-8.8c0-.29-.18-.53-.44-.63l-.94.94v6.41a.7.7 0 0 1-1.39 0v-1.56l-.98-.98h-1.56a.7.7 0 0 0-.7.7v1.84a.7.7 0 1 1-1.38 0v-1.84c0-.9.58-1.68 1.39-1.96v-2.9a.7.7 0 0 0-.7-.69h-.69v1.74a.7.7 0 0 1-1.38 0v-3.65l-.43-.86h-2.34v4.16a.7.7 0 0 1-1.4 0v-4.56l-.97-.98h-2.2l-.98.98v.75l1.2 1.25c.12.13.19.3.19.48v3.47a.7.7 0 1 1-1.39 0v-3.2l-.89-.92c-.29.1-.5.38-.5.7v10.11h2.78v-2.08a.7.7 0 1 1 1.38 0v2.08h2.78v-5.3a.7.7 0 0 1 1.38 0v5.3z"/><linearGradient id="az6rb" x1="608.25" x2="587" y1="267.9" y2="267.9" gradientUnits="userSpaceOnUse"><stop offset="0" stop-color="#a67655"/><stop offset="1" stop-color="#c19f63"/></linearGradient></defs><g><g transform="translate(-587 -259)"><g><use fill="url(#az6rb)" xlink:href="#az6ra"/></g></g></g></svg>