<svg xmlns="http://www.w3.org/2000/svg" xmlns:xlink="http://www.w3.org/1999/xlink" width="21" height="19" viewBox="0 0 21 19"><defs><path id="8texa" d="M598.1 535.77a.93.93 0 0 1-.66 1.58v3.7c0 .52-.41.93-.92.93h-16.67a.93.93 0 0 1-.92-.92v-3.7a.92.92 0 0 1-.66-1.59l4.36-4.36v-1a.92.92 0 0 1-.66-1.58l5.56-5.56a.93.93 0 0 1 1.31 0l5.56 5.56a.93.93 0 0 1-.66 1.58v1zm-6.21-6.83l-3.7-3.7-3.7 3.7v2.41l3.7 2.96 3.7-2.96zm.86 4.1l-3.99 3.18a.93.93 0 0 1-1.15 0l-3.99-3.18-2.84 2.84v4.25h14.81v-4.25zm-5.95-3.56c0-.51.41-.92.92-.92h.93c.51 0 .92.41.92.92v.93c0 .5-.41.92-.92.92h-.93a.93.93 0 0 1-.92-.92zm4.16 6.94c0-.5.42-.92.93-.92h.93c.5 0 .92.42.92.92v.93c0 .51-.42.93-.92.93h-.93a.93.93 0 0 1-.93-.93zm-8.33 0c0-.5.42-.92.92-.92h.93c.51 0 .93.42.93.92v.93c0 .51-.42.93-.93.93h-.93a.93.93 0 0 1-.92-.93z"/></defs><g><g transform="translate(-578 -523)"><use fill="#fff" xlink:href="#8texa"/></g></g></svg>