<svg xmlns="http://www.w3.org/2000/svg" xmlns:xlink="http://www.w3.org/1999/xlink" width="21" height="16" viewBox="0 0 21 16"><defs><path id="hjrfa" d="M691.9 455s2.1.94 2.1 2.1v13.13h-21V457.1c0-1.16.94-2.1 2.1-2.1zm0 13.13V457.1h-16.8v11.03h5.76a61204.84 61204.84 0 0 1 11.04 0zm-3.67-5.78a1.57 1.57 0 1 1 0-3.15 1.57 1.57 0 0 1 0 3.15zm-8.46-1.67c.28-.5.8-.55 1.17-.1l1.57 1.93c.37.45.96.45 1.32 0l.25-.33a.83.83 0 0 1 1.34-.01l2.6 3.05c.37.45.2.8-.38.8h-9.76c-.58 0-.83-.4-.54-.92z"/></defs><g><g transform="translate(-673 -455)"><use fill="#c19f63" xlink:href="#hjrfa"/></g></g></svg>