<svg xmlns="http://www.w3.org/2000/svg" xmlns:xlink="http://www.w3.org/1999/xlink" width="13" height="20" viewBox="0 0 13 20"><defs><path id="kfida" d="M431.67 599a5 5 0 1 1 0-10 5 5 0 0 1 0 10zm0-8.33a3.33 3.33 0 1 0 0 6.66 3.33 3.33 0 0 0 0-6.66z"/><path id="kfidc" d="M432.13 587.9l-2.9-7.23h4.48l1.77 5.83zm4.98-1.77l-1.85-6.11a1.48 1.48 0 0 0-1.4-1.02h-4.92c-1.01 0-1.72 1-1.39 1.95l3.34 8.36c.18.43.67.64 1.1.46l4.26-1.8c.74-.28 1.12-1.1.86-1.84z"/><path id="kfide" d="M434.7 587.8l-2.66-8.22a.83.83 0 1 0-1.59.51l2.67 8.22a.83.83 0 1 0 1.59-.51z"/><path id="kfidg" d="M429.14 580.43l3.3 8.26a.83.83 0 0 1-1.06 1.09l-4.6-1.67a1.45 1.45 0 0 1-.89-1.8l1.61-6.1c.25-.96 1.66-.75 1.64.22zm-1.6 6.18l2.66.97-1.76-4.4z"/><linearGradient id="kfidb" x1="436.67" x2="426.67" y1="594.43" y2="594.43" gradientUnits="userSpaceOnUse"><stop offset="0" stop-color="#a67655"/><stop offset="1" stop-color="#c19f63"/></linearGradient><linearGradient id="kfidd" x1="437.19" x2="427.47" y1="584.88" y2="584.88" gradientUnits="userSpaceOnUse"><stop offset="0" stop-color="#a67655"/><stop offset="1" stop-color="#c19f63"/></linearGradient><linearGradient id="kfidf" x1="434.75" x2="430.41" y1="584.37" y2="584.37" gradientUnits="userSpaceOnUse"><stop offset="0" stop-color="#a67655"/><stop offset="1" stop-color="#c19f63"/></linearGradient><linearGradient id="kfidh" x1="432.5" x2="425.82" y1="585.15" y2="585.15" gradientUnits="userSpaceOnUse"><stop offset="0" stop-color="#a67655"/><stop offset="1" stop-color="#c19f63"/></linearGradient></defs><g><g transform="translate(-425 -579)"><g><use fill="url(#kfidb)" xlink:href="#kfida"/></g><g><use fill="url(#kfidd)" xlink:href="#kfidc"/></g><g><use fill="url(#kfidf)" xlink:href="#kfide"/></g><g><use fill="url(#kfidh)" xlink:href="#kfidg"/></g></g></g></svg>