<svg xmlns="http://www.w3.org/2000/svg" xmlns:xlink="http://www.w3.org/1999/xlink" width="20" height="20" viewBox="0 0 20 20"><defs><path id="vgfma" d="M634.45 298.54c-.45.44-.67.64-1.18.64-.5 0-.73-.2-1.17-.64-.5-.5-1.18-1.18-2.46-1.18-1.29 0-1.97.68-2.46 1.18-.45.44-.67.64-1.18.64-.51 0-.73-.2-1.18-.64-.5-.5-1.17-1.18-2.45-1.18-1.3 0-1.97.68-2.47 1.18-.44.44-.66.64-1.17.64-.51 0-.73-.2-1.18-.64a.9.9 0 0 0-1.28 1.28c.5.5 1.17 1.18 2.46 1.18 1.28 0 1.96-.68 2.46-1.18.44-.44.66-.64 1.17-.64.51 0 .73.2 1.18.64.5.5 1.17 1.18 2.46 1.18s1.96-.68 2.46-1.18c.45-.44.66-.64 1.18-.64.5 0 .73.2 1.17.64.5.5 1.18 1.18 2.46 1.18 1.29 0 1.97-.68 2.46-1.18a.9.9 0 0 0-1.28-1.28z"/><path id="vgfmc" d="M635.73 294.9a.9.9 0 0 1 0 1.29c-.5.5-1.17 1.17-2.46 1.17-1.28 0-1.96-.68-2.46-1.17-.44-.45-.66-.64-1.17-.64-.51 0-.73.2-1.18.64-.5.5-1.17 1.17-2.46 1.17s-1.96-.68-2.46-1.17c-.45-.45-.67-.64-1.18-.64-.5 0-.73.2-1.17.64-.5.5-1.18 1.17-2.46 1.17-1.29 0-1.97-.68-2.46-1.17a.9.9 0 0 1 1.28-1.29c.45.45.67.65 1.18.65.4 0 .62-.13.9-.39v-12.34h-2.72a.9.9 0 0 1 0-1.82h18.18a.9.9 0 0 1 0 1.82h-2.73v12.34c.3.26.51.39.91.39.51 0 .73-.2 1.18-.65a.9.9 0 0 1 1.28 0zm-6.1-1.17c.35 0 .65.05.92.13v-11.04h-9.1v11.04c.27-.08.57-.13.91-.13 1.29 0 1.97.68 2.46 1.17.45.45.67.65 1.18.65.51 0 .73-.2 1.18-.65.5-.5 1.17-1.17 2.46-1.17z"/><path id="vgfme" d="M627.82 284.64c-.5 0-.91.4-.91.9v3.06a.9.9 0 0 0 1.82 0v-3.05c0-.5-.4-.91-.91-.91z"/><path id="vgfmg" d="M624.18 287.67c-.5 0-.91.4-.91.9v3.06a.9.9 0 0 0 1.82 0v-3.05c0-.5-.4-.91-.91-.91z"/><linearGradient id="vgfmb" x1="636" x2="616" y1="299.34" y2="299.34" gradientUnits="userSpaceOnUse"><stop offset="0" stop-color="#a67655"/><stop offset="1" stop-color="#c19f63"/></linearGradient><linearGradient id="vgfmd" x1="636" x2="616" y1="289.88" y2="289.88" gradientUnits="userSpaceOnUse"><stop offset="0" stop-color="#a67655"/><stop offset="1" stop-color="#c19f63"/></linearGradient><linearGradient id="vgfmf" x1="628.73" x2="626.91" y1="287.28" y2="287.28" gradientUnits="userSpaceOnUse"><stop offset="0" stop-color="#a67655"/><stop offset="1" stop-color="#c19f63"/></linearGradient><linearGradient id="vgfmh" x1="625.09" x2="623.27" y1="290.31" y2="290.31" gradientUnits="userSpaceOnUse"><stop offset="0" stop-color="#a67655"/><stop offset="1" stop-color="#c19f63"/></linearGradient></defs><g><g transform="translate(-616 -281)"><g><use fill="url(#vgfmb)" xlink:href="#vgfma"/></g><g><use fill="url(#vgfmd)" xlink:href="#vgfmc"/></g><g><use fill="url(#vgfmf)" xlink:href="#vgfme"/></g><g><use fill="url(#vgfmh)" xlink:href="#vgfmg"/></g></g></g></svg>