<svg xmlns="http://www.w3.org/2000/svg" xmlns:xlink="http://www.w3.org/1999/xlink" width="20" height="20" viewBox="0 0 20 20"><defs><path id="a" d="M189.2 2177.93l.08-.13.16.06c.2.26.22.58.1 1.22l-.03.18c-.07.24-.1.55-.18.9l-.05.05c-.26-1-.27-1.81-.08-2.28zm-3.28 9.96c-.72 1.32-1.38 2.05-1.88 2.22.06-.42.56-1.15 1.35-1.88.11-.09.3-.2.53-.34zm10.2-1.62c.05.04.07.09.1.12-.02.11-.05.12-.1.14h-.05l-.21.03c-.52 0-1.3-.22-2.12-.57.1-.11.18-.11.26-.11 1.56 0 2 .28 2.11.39zm1.66-12.27c1.22 0 2.22.99 2.22 2.22v15.56c0 1.22-1 2.22-2.22 2.22h-15.56c-1.22 0-2.22-1-2.22-2.22v-15.56c0-1.23.99-2.22 2.22-2.22zm-1.21 13.06c.2-.2.3-.46.3-.74a.9.9 0 0 0-.13-.6c-.32-.53-1.15-.78-2.53-.78-.45 0-.93.03-1.43.08-.36-.2-.68-.42-.97-.64a6.56 6.56 0 0 1-1.78-2.85l.05-.15c.36-1.48.7-3.27-.02-4a.95.95 0 0 0-.68-.27h-.27c-.41 0-.78.43-.88.86-.4 1.47-.16 2.29.25 3.63v.01c-.28.98-.64 2.11-1.2 3.26-.38.74-.74 1.42-1.07 2a6.5 6.5 0 0 0-.99.54c-1.33.83-1.96 1.77-2.09 2.36a1 1 0 0 0 .06.6l.03.05.54.35a1 1 0 0 0 .48.12c.9 0 1.93-1.06 3.3-3.41l.2-.08a23.3 23.3 0 0 1 4.48-.83c1.11.56 2.5.82 3.34.82.48 0 .82-.12 1-.33zm-7.2-4.24a6.83 6.83 0 0 0 2.15 2.75c-.96.17-2.3.49-3.7 1.03l-.13.04c.09-.33.33-.73.55-1.15.5-.97.87-1.85 1.13-2.67z"/></defs><use fill="#d0021b" xlink:href="#a" transform="translate(-180 -2174)"/></svg>