<svg xmlns="http://www.w3.org/2000/svg" xmlns:xlink="http://www.w3.org/1999/xlink" width="62" height="62" viewBox="0 0 62 62"><defs><path id="w572a" d="M419.164 1030.976c.138 0 .278-.028.412-.087 3.296-1.435 8.863-2.182 16.55-2.221l.747 1.494a1.032 1.032 0 1 0 1.849-.924l-1.033-2.067a1.034 1.034 0 0 0-.925-.571c-8.42 0-14.313.783-18.014 2.394a1.035 1.035 0 0 0 .414 1.982z"/><path id="w572b" d="M461.567 1020.393c-.57 0-1.034-.461-1.034-1.028 0-.566.463-1.028 1.034-1.028.57 0 1.033.462 1.033 1.028 0 .567-.463 1.028-1.033 1.028zm11.366 12.41h-2.066v-5.166c0-.274-.11-.538-.303-.73l-6.208-6.208c.194-.404.31-.852.31-1.329 0-1.71-1.39-3.1-3.1-3.1-1.708 0-3.1 1.39-3.1 3.1 0 1.71 1.392 3.1 3.1 3.1.478 0 .925-.117 1.328-.31l5.906 5.904v4.74h-53.733c-1.14 0-2.067.926-2.067 2.066v3.1a1.034 1.034 0 0 0 2.067 0v-3.1h57.866v3.1a1.033 1.033 0 1 0 2.067 0v-3.1a2.07 2.07 0 0 0-2.067-2.067z"/><path id="w572c" d="M435.733 1002.833c0-.57.464-1.033 1.034-1.033h4.133c.57 0 1.033.464 1.033 1.033v1.034c0 1.14-.927 2.066-2.066 2.066H437.8a2.069 2.069 0 0 1-2.067-2.066zm10.334 0c0-.57.463-1.033 1.033-1.033h4.133c.57 0 1.034.464 1.034 1.033v1.034c0 1.14-.927 2.066-2.067 2.066h-2.067a2.069 2.069 0 0 1-2.067-2.066v-1.034zm-18.314 5.076c.753 1.961 3.246 8.285 5.054 10.998l.163.247c1.327 2.012 3.547 5.38 11.03 5.38 7.482 0 9.703-3.368 11.03-5.38l.163-.247c1.808-2.713 4.3-9.037 5.054-10.998a3.106 3.106 0 0 0 2.353-3.009v-4.133a3.106 3.106 0 0 0-2.067-2.924V992.5c0-4.08-2.148-11.616-10.094-12.343a2.349 2.349 0 0 0-.357-1.17C449.066 977.343 446.214 977 444 977c-18.387 0-18.6 17.391-18.6 17.567 0 .57.462 1.032 1.031 1.032h.002c.57 0 1.032-.46 1.034-1.031.002-.633.234-15.501 16.533-15.501 2.922 0 4.093.632 4.324 1.006.032.053.12.194-.082.598a1.034 1.034 0 0 0 .924 1.496c9.162 0 9.3 9.912 9.3 10.333v6.2c0 .57.462 1.033 1.034 1.033.57 0 1.033.464 1.033 1.034v4.133c0 .57-.463 1.033-1.033 1.033-.431 0-.817.268-.969.67-.03.083-3.08 8.192-5.058 11.157l-.17.256c-1.237 1.879-2.934 4.45-9.303 4.45-6.37 0-8.066-2.571-9.304-4.45l-.17-.256c-1.977-2.965-5.028-11.074-5.059-11.156a1.033 1.033 0 0 0-.967-.67c-.57 0-1.033-.465-1.033-1.034v-4.133c0-.28.111-.535.293-.72.375.842 1.14 1.6 2.427 1.727l3.536 2.652c.276 2.013 1.989 3.574 4.077 3.574h2.067a4.138 4.138 0 0 0 4.133-4.133 4.138 4.138 0 0 0 4.133 4.133h2.067c2.087 0 3.802-1.561 4.076-3.575l3.777-2.832a1.033 1.033 0 1 0-1.24-1.653l-2.634 1.976a3.093 3.093 0 0 0-2.946-2.183H447.1c-1.71 0-3.1 1.391-3.1 3.1 0-1.709-1.39-3.1-3.1-3.1h-4.133c-1.388 0-2.552.923-2.946 2.183l-1.972-1.479c.813-1.965 1.55-4.872 1.759-6.913 3.257-.058 12.68-.456 16.872-3.072.95 3.67 4.002 6.759 4.156 6.912a1.032 1.032 0 1 0 1.461-1.461c-.038-.038-3.83-3.873-3.83-7.536a1.034 1.034 0 0 0-1.92-.532c-1.504 2.505-11.264 3.632-17.714 3.632-.57 0-1.033.463-1.033 1.033 0 1.677-.792 5.027-1.636 7.089-.33-.199-.422-.569-.43-.889 0-.57-.463-1.033-1.034-1.033-1.709 0-3.1 1.39-3.1 3.1v4.133a3.106 3.106 0 0 0 2.353 3.01z"/><path id="w572d" d="M449.162 1014.2a1.035 1.035 0 0 0-1.029-1.037c-.02 0-1.867-.02-3.674-.924a1.037 1.037 0 0 0-.924 0c-1.808.904-3.656.924-3.672.924a1.034 1.034 0 0 0 0 2.067c.088 0 2.04-.011 4.134-.927 2.092.916 4.045.927 4.133.927.57 0 1.03-.461 1.032-1.03z"/><path id="w572e" d="M451.234 1026.642c-.386.002-.74.219-.918.564l-1.033 2.023a1.035 1.035 0 0 0 1.841.94l.746-1.46c5.648.015 10.196.438 13.53 1.256a1.032 1.032 0 1 0 .493-2.007c-3.619-.89-8.527-1.352-14.66-1.316z"/><path id="w572f" d="M442.97 1027.633v2.067a1.034 1.034 0 0 0 2.067 0v-2.067a1.034 1.034 0 0 0-2.067 0z"/><path id="w572g" d="M442.963 1016.27a1.034 1.034 0 0 0 0 2.067h2.067a1.033 1.033 0 1 0 0-2.067z"/></defs><g><g transform="translate(-413 -977)"><g><g><use fill="#ffbe08" xlink:href="#w572a"/></g><g><use fill="#ffbe08" xlink:href="#w572b"/></g><g><use fill="#ffbe08" xlink:href="#w572c"/></g><g><use fill="#ffbe08" xlink:href="#w572d"/></g><g><use fill="#ffbe08" xlink:href="#w572e"/></g><g><use fill="#ffbe08" xlink:href="#w572f"/></g><g><use fill="#ffbe08" xlink:href="#w572g"/></g></g></g></g></svg>