<svg xmlns="http://www.w3.org/2000/svg" xmlns:xlink="http://www.w3.org/1999/xlink" width="17" height="21" viewBox="0 0 17 21"><defs><path id="a" d="M2629.97 867.01c-.02.14-.06.28-.14.41l-5.92 8.05c-.25.42-.75.6-1.22.5-.47.1-.97-.09-1.22-.5l-6.27-8.05a1.06 1.06 0 0 1-.1-.23 7.85 7.85 0 0 1-1.13-4.06c0-4.5 3.81-8.15 8.52-8.15 4.7 0 8.51 3.65 8.51 8.15 0 1.41-.37 2.73-1.03 3.88zm-7.46-9.45a5.72 5.72 0 0 0-5.84 5.6c0 1.13.35 2.19.96 3.07v.02l5.03 6.45 4.8-6.52v-.06c.56-.86.9-1.87.9-2.97a5.72 5.72 0 0 0-5.85-5.59zm-.02 9.44a3.96 3.96 0 0 1-4.05-3.87 3.97 3.97 0 0 1 4.05-3.88 3.97 3.97 0 0 1 4.05 3.88 3.97 3.97 0 0 1-4.05 3.87zm0-5.16c-.74 0-1.35.57-1.35 1.29 0 .7.6 1.28 1.35 1.28.74 0 1.34-.57 1.34-1.28 0-.72-.6-1.3-1.34-1.3z"/></defs><use fill="#aecebc" xlink:href="#a" transform="translate(-2614 -855)"/></svg>