<svg xmlns="http://www.w3.org/2000/svg" xmlns:xlink="http://www.w3.org/1999/xlink" width="25" height="25" viewBox="0 0 25 25"><defs><path id="a" d="M342.64 1564.1c-.4 3.22-.23 7.37.28 9.72 2.47.3 9.38.35 10.9.11a4 4 0 0 1 .19-.02c.28-.03.36-.04.46-.08.33-.12.53-.5.47-1.76a.92.92 0 0 1 .38-.8c.8-.56.9-1.17.59-2.3a.92.92 0 0 1 .68-1.16c.3-.06.62-1.5.32-1.76a.94.94 0 0 1-.03-1.36c.16-.16.37-.72.37-1.16 0-.81-.23-1.11-.99-1.24-.52-.1-1.12-.15-1.77-.18a28.24 28.24 0 0 0-4.46.18.87.87 0 0 1-.87-.46c-.05-.1-.1-.21-.12-.34-.1-.57.01-1.63.48-3.46.43-1.73-.71-3.43-2.08-4.07-.2-.1-.31-.08-.42.07a25.8 25.8 0 0 1-.03 2.18 10.68 10.68 0 0 1-2.81 6.44 16.66 16.66 0 0 1-1.54 1.45zm-.4-2.05l.67-.67a8.87 8.87 0 0 0 2.37-6.11 25.55 25.55 0 0 0-.04-1.58.95.95 0 0 1 .12-.52c.1-.16.24-.36.46-.55a2.05 2.05 0 0 1 2.34-.33 5.5 5.5 0 0 1 3.06 6.2c-.2.78-.32 1.4-.4 1.89l.12-.01c1.21-.1 2.45-.14 3.62-.09.73.03 1.4.1 2 .2 1.64.29 2.45 1.37 2.45 3.05 0 .62-.18 1.3-.46 1.83a3.7 3.7 0 0 1-.79 3.8c.23 1.33-.05 2.42-1.05 3.31-.02 1.7-.6 2.7-1.66 3.09a2.73 2.73 0 0 1-.86.17l-.1.01c-1.62.25-8.12.22-11.05-.08a.88.88 0 0 1-.36.28c-2.4 1-3.24 1.08-7.09.58a.89.89 0 0 1-.73-.64c-1.11-3.76-.97-7.9-.08-13.46a.88.88 0 0 1 1.1-.73c2 .56 3.3.61 5.95.3.15-.01.29 0 .41.06zm-5.87 1.65c-.67 4.52-.76 8.02.01 11.08 2.65.33 3.45.3 4.9-.24a34.54 34.54 0 0 1-.4-10.61c-1.78.15-3.04.1-4.51-.23zm2.11 10.24c-.7 0-1.26-.4-1.33-1.34-.06-.94.72-1.35 1.45-1.35s1.07.57 1.2 1.35c.12.78-.6 1.34-1.32 1.34z"/></defs><use fill="#fff" xlink:href="#a" transform="translate(-334 -1552)"/></svg>