<svg xmlns="http://www.w3.org/2000/svg" xmlns:xlink="http://www.w3.org/1999/xlink" width="47" height="18" viewBox="0 0 47 18"><defs><path id="a" d="M564.63 473.03a3.99 3.99 0 0 1-7.98 0 3.99 3.99 0 0 1 7.98 0zm-.49 0a3.5 3.5 0 0 0-7 0 3.5 3.5 0 0 0 7 0zm-.7 0a2.8 2.8 0 0 1-5.6 0 2.8 2.8 0 0 1 5.6 0zm-.49 0a2.3 2.3 0 0 0-4.61 0 2.3 2.3 0 0 0 4.61 0zm33.09 0a3.98 3.98 0 0 1-7.98 0 3.99 3.99 0 0 1 7.98 0zm-.5 0a3.5 3.5 0 0 0-6.99 0 3.5 3.5 0 0 0 7 0zm-.7 0a2.8 2.8 0 0 1-5.59 0 2.8 2.8 0 0 1 5.6 0zm-.48 0a2.3 2.3 0 0 0-4.62 0 2.3 2.3 0 0 0 4.62 0zm4.63-1.26c-.1.79-.55 1.14-.57 1.15l-1.2 1.2a.24.24 0 0 1-.3.03l-.45-.27a.24.24 0 0 1-.11-.24c.02-.2.04-.4.04-.6a4.34 4.34 0 1 0-8.55 1.1.25.25 0 0 1-.17.3l-.15.05a.25.25 0 0 1-.08 0h-22.38a.24.24 0 0 1-.24-.31 4.34 4.34 0 1 0-8.38.02.24.24 0 0 1-.23.32h-1.45c-1.5 0-2.62-.74-2.67-.77a.25.25 0 0 1-.1-.2v-3.06c0-1.06.58-1.69.77-1.86 1.34-3.48 9.64-4.52 10.36-4.6l9.65-4.3c1.4-.49 3.32-.73 5.73-.73 5.95 0 13.06 1.5 13.13 1.51.04.01.09.03.12.06l4.17 3.95 1.28.51c.08.03.13.1.15.18l.64 3.48c.76 1.18 1.1 2.21.99 3.08zm-3.25-6.8h-1.14c-.1 0-.11.03-.12.05-.12.19.06.85.3 1.39l2.52 1.34.03.02-.43-2.33zm-42.3 3.42l2.36-.65 2.4-1.44-.2-.14-1.08-.16c-1.5.58-2.86 1.36-3.49 2.4zm-.95 4.4h.57v-2.05h-.57zm12.9 1.22h21.92a4.62 4.62 0 0 1-.07-.42h-7.71a.25.25 0 0 1-.07.01h-.04l-.02-.01h-13.95l-.07.42zm3.24-10.67l-2.06.95.17.25 2.03-.03a2.82 2.82 0 0 1-.14-1.17zm-2.84 2.53c-.09.56-.5 3.93.98 7.23h12.48l1.38-8.55c-3.2.17-7.24.35-11.2.44h-.02l-2.7.04zm16.8-5.14l-.84-.07-.54 3.37.86-.05zm-.02 3.22c2.36-.13 3.96-.24 4.23-.26l1.34-.55.95-1.42a69.58 69.58 0 0 0-6-.94zm-1.31-3.33l-.72-.04-.66 3.52.82-.04zm-1.21-.07a36 36 0 0 0-1.49-.03c-3.87 0-5.35.7-5.37.72l-4.04 1.86c-.06.47-.05 1.13.14 1.34.03.04.07.06.13.06 3.46-.08 6.99-.23 9.95-.38zm16.97 7.6l-2.54-1.35a.24.24 0 0 1-.1-.1c-.11-.24-.66-1.4-.32-1.94.08-.13.24-.28.54-.28h.58l-3.71-3.5c-.74-.16-7.37-1.5-12.96-1.5-2.35 0-4.22.24-5.55.7l-9.66 4.3a31.39 31.39 0 0 0-5.37 1.16l.2.04c.03 0 .07.02.1.04l.55.4a.24.24 0 0 1-.02.4l-2.73 1.65a.22.22 0 0 1-.06.03l-2.88.79c-.11.11-.5.54-.58 1.25h.8c.13 0 .24.11.24.25v2.54c0 .14-.1.25-.24.25h-.82v.13c.3.17 1.18.62 2.28.62h1.14a4.83 4.83 0 0 1 4.73-5.82 4.84 4.84 0 0 1 4.84 4.82v.07h.75a14.13 14.13 0 0 1-.91-7.4c0-.05.03-.1.07-.13l.9-.83-.28-.42a.24.24 0 0 1 .1-.36l6.87-3.17c.05-.02 1.56-.76 5.58-.76.58 0 1.18.02 1.8.05h.03c.8.04 1.64.1 2.5.2l.03-.01h.01c2.03.22 4.24.56 6.62 1.04a.24.24 0 0 1 .15.37l-1.19 1.8a.25.25 0 0 1-.11.08l-1.44.6a388.59 388.59 0 0 1-5.83.36l-1.38 8.58h7.46v-.07a4.83 4.83 0 1 1 9.65.51l.15.1 1.09-1.09c.03-.03 1.4-1.19-1.08-4.4zm-20.83-1.4c0-.13.11-.24.25-.24h3.02a.25.25 0 1 1 0 .5h-3.02a.25.25 0 0 1-.25-.25z"/></defs><use xlink:href="#a" transform="translate(-552 -459)"/></svg>