<svg xmlns="http://www.w3.org/2000/svg" xmlns:xlink="http://www.w3.org/1999/xlink" width="55" height="18" viewBox="0 0 55 18"><defs><path id="a" d="M565.36 433.72A4.32 4.32 0 0 1 561 438a4.32 4.32 0 0 1-4.35-4.28 4.32 4.32 0 0 1 4.35-4.28c2.4 0 4.35 1.92 4.35 4.28zm-.6 0c0-2.04-1.68-3.7-3.75-3.7a3.73 3.73 0 0 0-3.76 3.7c0 2.04 1.69 3.7 3.76 3.7a3.73 3.73 0 0 0 3.76-3.7zm-.7 0a3.04 3.04 0 0 1-3.05 3.01 3.04 3.04 0 0 1-3.06-3.01 3.04 3.04 0 0 1 3.06-3.01 3.04 3.04 0 0 1 3.06 3.01zm-.58 0c0-1.34-1.1-2.43-2.47-2.43a2.45 2.45 0 0 0-2.47 2.43c0 1.34 1.1 2.43 2.47 2.43a2.45 2.45 0 0 0 2.47-2.43zm33.63-.37a4.32 4.32 0 0 1-4.3 4.32h-.05a4.33 4.33 0 0 1-4.35-4.23 4.32 4.32 0 0 1 4.3-4.32c2.42 0 4.38 1.9 4.4 4.23zm-.59 0a3.74 3.74 0 0 0-3.76-3.65 3.74 3.74 0 0 0-3.76 3.73 3.74 3.74 0 0 0 3.76 3.66v.3l.04-.3a3.74 3.74 0 0 0 3.72-3.73zm-.7.05a3.04 3.04 0 0 1-3.06 3 3.04 3.04 0 0 1-3.06-3 3.04 3.04 0 0 1 3.06-3.01 3.04 3.04 0 0 1 3.06 3zm-.59 0c0-1.34-1.1-2.43-2.47-2.43a2.45 2.45 0 0 0-2.47 2.43c0 1.33 1.11 2.42 2.47 2.42a2.45 2.45 0 0 0 2.47-2.42zm10.26.02l-.07.1-7.33 1.49-.9-.3.05-.26a4.59 4.59 0 0 0-4.48-5.59 4.59 4.59 0 0 0-4.6 4.59c0 .63.14 1.25.4 1.82l.2.4-22.97.24-.47-.58.05-.15c.17-.48.25-1 .25-1.51a4.59 4.59 0 0 0-4.61-4.48 4.59 4.59 0 0 0-4.47 5.62l.09.36-4.6.04-.01-1.4c0-.03-.52-6.04 5.57-7.2l7.67-1.07 9.22-4.42c.1-.05 2.47-1.12 7.25-1.12 5.26 0 11.22 1.27 17.7 3.77l6.12.6.56 4.03c.19.22.75.92.89 1.5.17.67-1.12 2.86-1.51 3.52zm-.26-7.07l-3.32.03.55.99 2.9-.03zm-52.3 4.8l2-.35 1.4-1.97-2.02.02a5.68 5.68 0 0 0-1.38 2.3zm-.34 2.36h1.35l-.46-.96h-.85c-.04.41-.04.75-.04.96zm53.02-1.5l-4.95.05-2.72 1.02.02.25c0 .34-.03.67-.09 1l.26.08 6.91-1.4c.2-.33.39-.67.57-1zm.82-1.98c-.11-.45-.63-1.1-.82-1.31l-.06-.07-.1-.73-3.33.03-1.2-2.14 4.23-.04-.12-.87-5.77-.58c-6.44-2.48-12.34-3.74-17.53-3.74-4.65 0-6.98 1.05-7 1.06l-9.34 4.47-7.7 1.07c-1.12.21-1.99.6-2.67 1.08l2.45-.02-2.2 3.08-2.5.46-.05.2 1.13-.02 1.02 2.11-2.26.03v.53l3.28-.04a5.09 5.09 0 0 1 5.06-5.98h.06a5.18 5.18 0 0 1 5.2 5.05c0 .13-.02.25-.03.38l.71-.01-1.03-6.05.8-1.5-.97.04L576 421.7a28.49 28.49 0 0 1 17.95 2.3l.34.17-.83.95-3.2.16.3.97-.07.1-4.47 8.07-19.9.2c-.04.2-.07.4-.14.6l.1.11 21.78-.22a5.16 5.16 0 0 1 4.84-6.82h.06a5.2 5.2 0 0 1 5.11 4.2l2.73-1 5.3-.05a4 4 0 0 0 .53-1.4zm-27.16-4.2c-.46 2.17-.89 5-.91 8.08l7.31-.07 4.25-7.66-.26-.88zm10.82-1.13l3.08-.16.17-.2a26.07 26.07 0 0 0-3.78-1.44zm-.6.03l-.6-2.02-.74-.2.69 2.25zm-2-2.36a29.01 29.01 0 0 0-7.12-.63c-.16.45-.56 1.71-.97 3.5l8.83-.45zm-7.75-.6l-.8.06-.94 3.48.79-.04c.37-1.66.75-2.9.95-3.5zm-1.42.12c-1.32.15-2.11.34-2.12.34l-7.58 3.56 8.76-.44zm-10.98 4.55l-.87 1.64 1.02 5.94 10.28-.1c.02-3.06.44-5.87.9-8.06z"/></defs><use xlink:href="#a" transform="translate(-552 -420)"/></svg>