<svg xmlns="http://www.w3.org/2000/svg" xmlns:xlink="http://www.w3.org/1999/xlink" width="26" height="20" viewBox="0 0 26 20"><defs><path id="a" d="M1164.2 759.87v-1.17c0-.36-.14-.56-.45-.56-.3 0-.52.2-.52.56v1.17h-.46v-1.17c0-.36-.16-.56-.46-.56-.32 0-.52.2-.52.56v1.17h-.46v-2.1h.46v.26a.7.7 0 0 1 .62-.32c.32 0 .55.14.7.38.19-.3.46-.38.73-.38.51 0 .83.34.83.84v1.32zm7.32-1.68h-.75v.95c0 .2.08.35.3.35.12 0 .27-.04.41-.12l.13.4c-.14.1-.37.16-.57.16-.54 0-.73-.3-.73-.78v-.97h-.43v-.41h.43v-.64h.46v.64h.75zm3.91-.48c.1 0 .23.02.33.06l-.14.43a.74.74 0 0 0-.3-.05c-.29 0-.44.2-.44.54v1.18h-.46v-2.1h.46v.25c.11-.18.29-.3.55-.3zm-5.91.22l-.2.38a1.35 1.35 0 0 0-.66-.18c-.25 0-.4.09-.4.24s.16.19.36.21l.22.03c.46.07.73.26.73.64 0 .4-.35.69-.96.69-.34 0-.66-.1-.91-.28l.21-.36c.16.12.39.22.7.22.32 0 .49-.09.49-.25 0-.12-.12-.19-.37-.22l-.22-.04c-.47-.06-.73-.27-.73-.62 0-.42.35-.68.88-.68.33 0 .64.08.86.22zm12.28-.22c.1 0 .22.02.33.06l-.15.43a.74.74 0 0 0-.28-.05c-.3 0-.45.2-.45.54v1.18h-.46v-2.1h.45v.25c.12-.18.3-.3.56-.3zm-5.9 1.11c0-.64.44-1.1 1.12-1.1.31 0 .53.06.75.25l-.22.37a.93.93 0 0 0-.55-.2c-.36.01-.63.28-.63.68 0 .41.27.68.63.68.2 0 .38-.06.55-.19l.22.37a1.1 1.1 0 0 1-.75.26c-.68 0-1.13-.47-1.13-1.12zm4.29 0v1.06h-.46v-.25a.8.8 0 0 1-.67.3c-.59 0-1.05-.46-1.05-1.1 0-.65.46-1.12 1.05-1.12.3 0 .52.12.67.31v-.25h.46v1.05zm-1.7 0c0 .37.23.67.63.67.38 0 .63-.29.63-.67 0-.38-.25-.68-.63-.68-.4 0-.64.3-.64.68zm-5.54-1.1c.59 0 1 .44 1 1.1v.18h-1.57c.06.38.33.52.63.52a1 1 0 0 0 .6-.22l.23.34c-.25.22-.54.3-.86.3-.63 0-1.08-.44-1.08-1.12 0-.66.43-1.1 1.05-1.1zm-.01.4c-.33 0-.51.21-.56.51h1.1c-.05-.32-.24-.5-.54-.5zm11.5 1.75h-.46v-.25a.8.8 0 0 1-.66.3c-.6 0-1.06-.46-1.06-1.1 0-.64.47-1.1 1.06-1.1.3 0 .52.11.66.3v-1.1h.46zm-1.7-1.06c0 .37.24.67.64.67.38 0 .64-.28.64-.67 0-.38-.26-.66-.64-.66-.4 0-.65.3-.65.66zm-15.5.01v1.06h-.45v-.25a.8.8 0 0 1-.66.3c-.6 0-1.05-.46-1.05-1.1 0-.65.46-1.12 1.05-1.12.3 0 .51.12.66.31v-.25h.45v1.05zm-1.7 0c0 .36.25.66.65.66.38 0 .63-.28.63-.67 0-.38-.25-.66-.63-.66-.4 0-.64.3-.64.66zm19.66.75a.21.21 0 0 1 .2.13.2.2 0 0 1-.11.27.21.21 0 0 1-.28-.11.2.2 0 0 1 .11-.28.21.21 0 0 1 .08-.01zm0 .36l.07-.01a.17.17 0 0 0 .08-.08.16.16 0 0 0-.15-.22h-.06a.16.16 0 0 0 0 .3l.06.01zm.02-.25c.02 0 .04 0 .05.02.02 0 .03.02.02.04a.05.05 0 0 1-.03.05v-.06c-.01-.01-.02-.02-.03-.01h-.06v.15h-.04v-.19h.09zm.01.12l.01.01h.02v-.02l-.03.01zm.07.07h-.05l-.05-.05h.04zm-.11-.07h-.02v.02h.03z"/><path id="b" d="M1169.8 747.95a7.92 7.92 0 0 1 3.04-6.24 7.93 7.93 0 1 0 0 12.48 7.92 7.92 0 0 1-3.03-6.24"/><path id="c" d="M1185.68 747.95a7.93 7.93 0 0 1-12.84 6.23 7.92 7.92 0 0 0 0-12.47 7.93 7.93 0 0 1 12.84 6.24"/></defs><use fill="#fff" xlink:href="#a" transform="translate(-1160 -740)"/><use fill="#c1c1c1" xlink:href="#b" transform="translate(-1160 -740)"/><use fill="#fff" xlink:href="#c" transform="translate(-1160 -740)"/></svg>