<svg xmlns="http://www.w3.org/2000/svg" xmlns:xlink="http://www.w3.org/1999/xlink" width="30" height="10" viewBox="0 0 30 10"><defs><path id="a" d="M1121.41 747.54c-1.04-.57-3.4-.7-3.4.35 0 1.06 3.39 1.28 3.39 3.71 0 2.34-2.5 3.2-4.17 3.2-1.66 0-2.74-.52-2.74-.52l.36-2.1c1 .8 4.01 1.03 4.01-.24s-3.36-1.3-3.36-3.72c0-2.56 2.87-3.09 4.07-3.09 1.12 0 2.2.4 2.2.4zm5.56 3.8l-.72-3.5-1.28 3.5zm.4 1.9h-3.1l-.51 1.4h-2.54l3.63-8.65s.22-.7 1.13-.7h1.95l1.95 9.34h-2.23zm-16.24-7.94l-3.88 9.33h-2.53l-2.11-8.1a9.1 9.1 0 0 0-2.55-1.07l.05-.16h3.83c1.06 0 1.15.84 1.15.84l.82 4.2.28 1.38 2.32-6.42zm1.86 9.33h-2.44l1.53-9.33h2.44z"/></defs><use fill="#fff" xlink:href="#a" transform="translate(-1100 -745)"/></svg>