<svg xmlns="http://www.w3.org/2000/svg" xmlns:xlink="http://www.w3.org/1999/xlink" width="68" height="15" viewBox="0 0 68 15"><defs><path id="a" d="M1312.74 755.47v-4.05l-2.72-7.25h1.37l2 5.6 2.31-6.77h1.26l-2.96 8.47v4h-1.26"/><path id="b" d="M1319.76 755.47c-.04-.17-.1-.43-.1-.63h-.09c-.35.44-.8.74-1.5.74-1.14 0-1.92-.85-1.92-2.42 0-1.7.88-2.78 3.12-2.78h.18v-.47c0-1.05-.35-1.49-1.05-1.49-.64 0-1.18.33-1.6.7l-.24-1.1c.37-.3 1.1-.63 1.91-.63 1.42 0 2.2.6 2.2 2.53v3.75c0 .76.08 1.42.15 1.8zm-.3-4.16h-.15c-1.55 0-1.89.69-1.89 1.72 0 .92.3 1.52.95 1.52.43 0 .86-.29 1.09-.64zm4 4.16h-1.24v-7.98h1.24v.7h.08c.22-.3.82-.8 1.57-.8 1.05 0 1.6.59 1.6 1.8v6.28h-1.25v-6.16c0-.6-.27-.8-.75-.8-.52 0-.97.39-1.25.78zm4.49-3.68c0-2.96 1.11-4.4 2.72-4.4.38 0 .78.13 1.02.3v-3.52h1.24v11.3h-.92l-.1-.63h-.08c-.35.44-.8.74-1.44.74-1.58 0-2.44-1.33-2.44-3.8zm3.74-3a1.22 1.22 0 0 0-.94-.38c-1 0-1.48 1.5-1.48 3.13 0 1.86.35 3 1.26 3 .62 0 .95-.3 1.16-.62zm5.16 6.8c-1.66 0-2.67-1.32-2.67-3.77 0-2.56.71-4.43 2.42-4.43 1.33 0 2.2 1 2.2 3.7v.68h-3.33c0 1.8.5 2.75 1.5 2.75.7 0 1.2-.31 1.52-.53l.29.94c-.51.4-1.13.65-1.93.65zm-1.37-4.84h2.07c0-1.35-.23-2.34-.95-2.34-.77 0-1.04.92-1.12 2.34zm8.73-3.24l-1.5 3.72 1.67 4.23h-1.29l-1.24-3.28-1.21 3.28h-1.23l1.68-4.12-1.52-3.83h1.3l1.03 2.88 1.1-2.88z"/><path id="c" d="M1348.68 747.74l-.34 7.73h-.65l.5-11.3h.87l1.7 6.97c.15.55.23 1.1.27 1.57h.04c.04-.48.14-1.02.28-1.57l1.75-6.97h.9l.49 11.3h-.77l-.33-7.8c-.05-.88-.03-1.56-.03-2.25h-.05c-.1.71-.2 1.37-.38 2.04l-1.6 6.24h-.61l-1.58-6.24a13.2 13.2 0 0 1-.37-2.03h-.05c0 .62-.01 1.54-.04 2.31"/><path id="d" d="M1355.73 751.54c0-2.66 1.07-4.19 2.45-4.19 1.39 0 2.45 1.36 2.45 4.1 0 2.63-1.06 4.18-2.45 4.18-1.38 0-2.45-1.37-2.45-4.1zm4.16-.05c0-2.5-.77-3.52-1.7-3.52-.95 0-1.71 1.1-1.71 3.52 0 2.47.76 3.53 1.7 3.53s1.7-1.13 1.7-3.53z"/><path id="e" d="M1362.76 749.66v5.81h-.75v-7.96h.69l.03 1.31h.03c.22-.58.86-1.47 1.94-1.47 1.07 0 1.69.66 1.69 1.93v6.2h-.75v-6.1c0-.96-.35-1.4-1.08-1.4-.8 0-1.4.67-1.8 1.68"/><path id="f" d="M1370.19 754.98c1.07 0 1.62-.85 1.62-.85l.24.6s-.6.9-1.88.9c-1.7 0-2.48-1.53-2.48-4.14 0-2.6.99-4.14 2.34-4.14 1.39 0 2.28 1.44 2.02 4.27h-3.63c.03 2.18.6 3.36 1.77 3.36zm-1.75-3.96h2.91c.13-2.1-.5-3.05-1.32-3.05-.84 0-1.53 1.07-1.6 3.05z"/><path id="g" d="M1373.23 757.96l-.08-.7c.13.04.29.07.5.07.54 0 .92-.52 1.16-1.4l.06-.24-1.99-8.19h.75l1.27 5.2c.15.6.26 1.19.34 1.8h.04c.12-.63.24-1.21.39-1.8l1.24-5.2h.67l-2.06 8.38c-.27 1.07-.75 2.12-1.88 2.12-.17 0-.3-.02-.41-.04"/></defs><use fill="#c1c1c1" xlink:href="#a" transform="translate(-1310 -743)"/><use fill="#fff" xlink:href="#b" transform="translate(-1310 -743)"/><use fill="#fff" xlink:href="#c" transform="translate(-1310 -743)"/><use fill="#fff" xlink:href="#d" transform="translate(-1310 -743)"/><use fill="#fff" xlink:href="#e" transform="translate(-1310 -743)"/><use fill="#fff" xlink:href="#f" transform="translate(-1310 -743)"/><use fill="#fff" xlink:href="#g" transform="translate(-1310 -743)"/></svg>