<svg xmlns="http://www.w3.org/2000/svg" xmlns:xlink="http://www.w3.org/1999/xlink" width="62" height="16" viewBox="0 0 62 16"><defs><path id="a" d="M1227.67 756.74c-.72.82-2.03 1.18-3.7 1.18h-4.84a.7.7 0 0 1-.69-.59l-2.01-12.76a.41.41 0 0 1 .4-.48h3l.75 4.75-.02-.15a.7.7 0 0 0 .68.59h1.42c2.8 0 4.98 1.13 5.62 4.4l.05.28c.19 1.21 0 2.04-.66 2.78"/><path id="b" d="M1263.91 753.8h-3.34a.47.47 0 0 1-.46-.4l-1.36-8.55a.28.28 0 0 1 .28-.32h1.72c.16 0 .3.12.32.27l.38 2.43c.04.22.23.4.46.4h1.06c2.2 0 3.47 1.05 3.8 3.16.16.92.01 1.65-.42 2.16-.48.55-1.32.85-2.44.85m.37-3.13c-.18-1.2-1.09-1.2-1.97-1.2h-.5l.35 2.24c.02.14.14.24.27.24h.23c.6 0 1.17 0 1.46-.35.18-.2.23-.5.16-.93"/><path id="c" d="M1250.04 750.71h-1.6a.28.28 0 0 1-.27-.23l-.07-.45-.12.16c-.34.5-1.11.67-1.89.67a3.68 3.68 0 0 1-3.57-3.21c-.15-.94.07-1.83.6-2.46.49-.57 1.18-.81 2.01-.81 1.43 0 2.22.91 2.22.91l-.07-.44a.28.28 0 0 1 .27-.32h1.44c.23 0 .43.16.46.39l.87 5.47a.28.28 0 0 1-.28.32m-2.22-3.1a1.79 1.79 0 0 0-1.8-1.54c-.47 0-.85.15-1.09.44-.23.28-.32.68-.25 1.12a1.8 1.8 0 0 0 1.8 1.55c.45 0 .82-.15 1.07-.44.24-.29.34-.69.27-1.13m-7.77 6.19h-3.34a.47.47 0 0 1-.46-.4l-1.36-8.55a.28.28 0 0 1 .28-.32h1.6c.23 0 .42.16.46.39l.36 2.3c.04.23.23.4.46.4h1.06c2.2 0 3.47 1.06 3.8 3.17.16.92.01 1.65-.42 2.15-.48.56-1.32.86-2.44.86m.38-3.13c-.18-1.2-1.1-1.2-1.98-1.2h-.5l.35 2.24c.02.14.14.24.27.24h.23c.6 0 1.17 0 1.47-.35.17-.2.22-.5.16-.93"/><path id="d" d="M1273.92 750.71h-1.6a.28.28 0 0 1-.28-.23l-.07-.45-.11.16c-.35.5-1.12.67-1.9.67a3.68 3.68 0 0 1-3.57-3.21c-.16-.94.06-1.83.6-2.46.48-.57 1.18-.81 2.01-.81 1.43 0 2.22.91 2.22.91l-.07-.44a.28.28 0 0 1 .27-.32h1.45c.23 0 .42.16.46.39l.86 5.47a.28.28 0 0 1-.27.32m-2.22-3.1a1.8 1.8 0 0 0-1.82-1.54c-.47 0-.84.15-1.08.44-.24.28-.33.68-.25 1.12.14.91.88 1.55 1.8 1.55.46 0 .83-.16 1.07-.44.25-.29.35-.7.28-1.13"/><path id="e" d="M1258.59 750.7h-1.62a.46.46 0 0 1-.38-.2l-2.22-3.26-.94 3.13a.47.47 0 0 1-.45.33h-1.58a.28.28 0 0 1-.27-.36l1.78-5.2-1.67-2.34a.28.28 0 0 1 .23-.44h1.6c.16 0 .3.07.39.2l5.35 7.7a.28.28 0 0 1-.22.44"/><path id="f" d="M1275.8 753.56l-1.37-8.7a.28.28 0 0 1 .28-.33h1.38c.23 0 .42.17.46.4l1.35 8.55a.28.28 0 0 1-.27.32h-1.55a.28.28 0 0 1-.27-.24"/><path id="g" d="M1221.39 753.95c.04.3.3.5.6.5h3.8a8.01 8.01 0 0 0 1.87-.22c.23-.06.46-.15.67-.27.2 1.21 0 2.04-.66 2.78-.72.82-2.02 1.18-3.7 1.18h-4.84a.7.7 0 0 1-.69-.59l-2.01-12.76a.41.41 0 0 1 .4-.48h3l.75 4.75.8 5.1z"/><path id="h" d="M1228.32 753.96l-.05-.28c-.64-3.28-2.82-4.4-5.62-4.4h-1.42a.69.69 0 0 1-.68-.6l-.73-4.6-.2-1.3a.36.36 0 0 1 .35-.42h2.53c.3 0 .55.22.6.51l.02.13.48 3 .03.17c.04.3.3.51.6.51h.37c2.45 0 4.36.99 4.92 3.85.23 1.2.11 2.2-.5 2.9-.2.22-.44.4-.7.53"/><path id="i" d="M1227.65 754.23a4.4 4.4 0 0 1-.62.13c-.38.07-.8.1-1.25.1h-3.8a.6.6 0 0 1-.6-.52l-.8-5.1-.03-.15c.05.34.34.58.68.58h1.42c2.8 0 4.99 1.14 5.62 4.4l.05.3a3.46 3.46 0 0 1-.67.26"/></defs><use fill="#003087" xlink:href="#a" transform="matrix(1 0 0 -1 -1216 758)"/><use fill="#fff" xlink:href="#b" transform="matrix(1 0 0 -1 -1216 758)"/><use fill="#c1c1c1" xlink:href="#c" transform="matrix(1 0 0 -1 -1216 758)"/><use fill="#fff" xlink:href="#d" transform="matrix(1 0 0 -1 -1216 758)"/><use fill="#c1c1c1" xlink:href="#e" transform="matrix(1 0 0 -1 -1216 758)"/><use fill="#fff" xlink:href="#f" transform="matrix(1 0 0 -1 -1216 758)"/><use fill="#003087" xlink:href="#a" transform="matrix(1 0 0 -1 -1216 758)"/><use fill="#c1c1c1" xlink:href="#g" transform="matrix(1 0 0 -1 -1216 758)"/><use fill="#fff" xlink:href="#h" transform="matrix(1 0 0 -1 -1216 758)"/><use fill="#909191" xlink:href="#i" transform="matrix(1 0 0 -1 -1216 758)"/></svg>