<svg xmlns="http://www.w3.org/2000/svg" xmlns:xlink="http://www.w3.org/1999/xlink" width="40" height="40" viewBox="0 0 40 40"><defs><path id="b" d="M156 1572l-4.59 4.41a2 2 0 1 1-2.82-2.82l1.58-1.59H146a2 2 0 1 1 0-4h6v-2c0-1.1.9-2 2-2h4v-7h-4l-.6-.8a3 3 0 0 0-4.8 0l-.6.8h-4.28c-2.5 0-3.99-2.25-3.02-4.54.15-.44.42-1.07.85-1.84.74-1.35 1.74-2.7 3.01-3.96 3.24-3.18 7.69-5.21 13.44-5.6V1539a2 2 0 0 1 2-2 2 2 0 0 1 2 2v2.06c5.75.38 10.2 2.42 13.44 5.6a17.27 17.27 0 0 1 3.02 3.96c.42.75.69 1.38.84 1.81 1.03 2.3-.5 4.57-3.02 4.57H172l-.6-.8a3 3 0 0 0-4.8 0l-.6.8h-4v7h4a2 2 0 0 1 2 2v2h6a2 2 0 1 1 0 4h-4.17l1.58 1.59a2 2 0 1 1-2.82 2.82l-4.6-4.41zm-.08-18.98c.27-.02 7.88-.02 8.2-.02a6.95 6.95 0 0 1 9.81.03 38.4 38.4 0 0 1 1.26-.03s.1.15-.23-.45a13.29 13.29 0 0 0-2.32-3.04c-2.87-2.81-6.96-4.51-12.64-4.51-5.67 0-9.77 1.7-12.63 4.51a13.29 13.29 0 0 0-2.55 3.48l1.34.01a7.37 7.37 0 0 1 4.84-2c1.87 0 3.63.74 4.92 2.02z"/><linearGradient id="a" x1="179.62" x2="140.4" y1="1558.72" y2="1558.72" gradientUnits="userSpaceOnUse"><stop offset="0" stop-color="#a67655"/><stop offset="1" stop-color="#c19f63"/></linearGradient></defs><use fill="url(#a)" xlink:href="#b" transform="translate(-140 -1537)"/></svg>