<svg xmlns="http://www.w3.org/2000/svg" xmlns:xlink="http://www.w3.org/1999/xlink" width="35" height="20" viewBox="0 0 35 20"><defs><path id="a" d="M1101.2 5550.8c2.8 2.62 3.39 3.87 3.48 4.04 1.16 1.92-1.27 2.07-1.27 2.07l-4.68.07s-1.02.2-2.32-.7c-1.76-1.2-3.45-4.35-4.7-3.93-1.29.42-1.25 3.23-1.25 3.23s0 .4-.29.71c-.33.35-.96.22-.96.22h-2.09s-4.62.47-8.67-3.76c-4.44-4.61-8.36-13.7-8.36-13.7s-.22-.54.02-.85c.27-.3 1.03-.3 1.03-.3h5s.5 0 .8.3c.28.2.44.62.44.62s.8 2.01 1.89 3.87c2.08 3.61 3.05 4.4 3.72 4.01 1.09-.56.78-5.1.78-5.1s.02-1.66-.53-2.38c-.42-.57-1.21-.75-1.56-.78-.29-.04.18-.7.78-1 .9-.44 2.49-.44 4.37-.44 1.47 0 1.89.1 2.45.24 1.74.41 1.14 2.03 1.14 5.88 0 1.25-.18 2.96.67 3.56.39.26 1.33.04 3.69-3.94a32.04 32.04 0 0 0 1.92-4.12s.18-.38.45-.57c.3-.14.7-.14.7-.14h5.25s1.6-.18 1.85.53c.27.74-.6 2.5-2.76 5.35-3.51 4.73-3.91 4.3-1 7.02z"/></defs><use fill="#fff" xlink:href="#a" transform="translate(-1070 -5537)"/></svg>