<svg xmlns="http://www.w3.org/2000/svg" xmlns:xlink="http://www.w3.org/1999/xlink" width="54" height="49" viewBox="0 0 54 49"><defs><path id="b" d="M650.73 1378.36a1.73 1.73 0 1 0 2.95-1.82c-.38-.62-.2-1.47.15-2.82.38-1.44.84-3.23-.13-4.87a1.73 1.73 0 0 0-2.99 1.77c.24.4 0 1.33-.23 2.24-.42 1.6-.93 3.58.25 5.5z"/><path id="d" d="M655.98 1378.36a1.73 1.73 0 1 0 2.95-1.82c-.38-.62-.2-1.47.15-2.82.38-1.44.84-3.23-.13-4.87a1.73 1.73 0 0 0-2.99 1.77c.24.4 0 1.33-.23 2.24-.42 1.6-.93 3.58.25 5.5z"/><path id="f" d="M688.31 1385.15c-.01 0-1.52 1.12-3.42 3.75-.27.37-.55.77-.83 1.21a39.57 39.57 0 0 0-4.6 10.39 56.03 56.03 0 0 0-1.6 7.34l-.08.34a11.12 11.12 0 0 1-12.43 7.52c-.8.34-1.7.53-2.63.53h-15.1a6.89 6.89 0 0 1-6.88-6.74l-1.28-8.41a3.54 3.54 0 0 1-3.46-3.54v-3.56c0-1.36.77-2.54 1.9-3.13l-1.05-6.85a1.73 1.73 0 0 1 1.72-2h33.2a1.73 1.73 0 0 1 1.71 2l-1.04 6.85c1.13.59 1.9 1.77 1.9 3.13v3.56c0 1.93-1.55 3.5-3.46 3.54l-.73 4.79h4.51c3.02-17.26 11.28-23.3 11.64-23.55a1.73 1.73 0 0 1 2.01 2.83zm-22.45 5.3H669l.76-4.98h-3.47zm-8.96 0h5.48l.42-4.98h-5.9zm-9.36-4.98l.42 4.97h5.47v-4.97zm-6.95 0l.76 4.97h3.12l-.41-4.97zm5.73 27.03l-.96-11.42h-2.4l1.23 8 .02.27c0 1.42.87 2.64 2.1 3.15zm24.48-14.9c.04 0 .07-.02.07-.06v-3.56a.07.07 0 0 0-.07-.07h-31.27a.07.07 0 0 0-.06.07v3.56c0 .04.03.07.06.07zm-5.83 3.48l-.4 4.79h2.07l.73-4.8zm-11.54 0h-4.59l.98 11.68h3.61zm3.47 0v5.4c.33-.39.81-.61 1.32-.61h2.87l.4-4.8zm2.56 11.68a11.12 11.12 0 0 1-2.56-3.72v3.72zm13.85-3.42h-12.26a7.66 7.66 0 0 0 12.26 0z"/><linearGradient id="a" x1="654.28" x2="650" y1="1374.07" y2="1374.07" gradientUnits="userSpaceOnUse"><stop offset="0" stop-color="#a67655"/><stop offset="1" stop-color="#c19f63"/></linearGradient><linearGradient id="c" x1="659.53" x2="655.25" y1="1374.07" y2="1374.07" gradientUnits="userSpaceOnUse"><stop offset="0" stop-color="#a67655"/><stop offset="1" stop-color="#c19f63"/></linearGradient><linearGradient id="e" x1="689.04" x2="636" y1="1400.58" y2="1400.58" gradientUnits="userSpaceOnUse"><stop offset="0" stop-color="#a67655"/><stop offset="1" stop-color="#c19f63"/></linearGradient></defs><use fill="url(#a)" xlink:href="#b" transform="translate(-636 -1368)"/><use fill="url(#c)" xlink:href="#d" transform="translate(-636 -1368)"/><use fill="url(#e)" xlink:href="#f" transform="translate(-636 -1368)"/></svg>