<svg xmlns="http://www.w3.org/2000/svg" xmlns:xlink="http://www.w3.org/1999/xlink" width="48" height="38" viewBox="0 0 48 38"><defs><path id="b" d="M178 1397v-12h-32v12h4v-6a2 2 0 0 1 2-2h6a2 2 0 0 1 2 2v6h4v-6a2 2 0 0 1 2-2h6a2 2 0 0 1 2 2v6zm-32 18v2a2 2 0 0 1-4 0v-2a4 4 0 0 1-4-4v-10a4 4 0 0 1 4-4v-12a4 4 0 0 1 4-4h32a4 4 0 0 1 4 4v12a4 4 0 0 1 4 4v10a4 4 0 0 1-4 4v2a2 2 0 0 1-4 0v-2zm-4-4h39.99v-2H142v2zm40-6v-4h-39.99v4z"/><linearGradient id="a" x1="186" x2="138" y1="1401.63" y2="1401.63" gradientUnits="userSpaceOnUse"><stop offset="0" stop-color="#a67655"/><stop offset="1" stop-color="#c19f63"/></linearGradient></defs><use fill="url(#a)" xlink:href="#b" transform="translate(-138 -1381)"/></svg>