<svg xmlns="http://www.w3.org/2000/svg" xmlns:xlink="http://www.w3.org/1999/xlink" width="200" height="211" viewBox="0 0 200 211"><defs><path id="h7gga" d="M888.34 3751.88c0 2.45-6.47 4.43-14.45 4.43-7.98 0-14.45-1.98-14.45-4.43 0-2.23 5.4-4.08 12.41-4.38l-.26-51.16 3.75-.02.02 3.4 23.26 13.96-23.12 13.87.1 19.93c7.18.26 12.74 2.13 12.74 4.4zM709.9 3580.07c4.72.17 8.38 1.4 8.38 2.9 0 1.6-4.25 2.9-9.5 2.9s-9.51-1.3-9.51-2.9c0-1.48 3.55-2.7 8.17-2.9l-.17-33.64 2.46-.01.01 2.24 15.3 9.17-15.2 9.13zm4.78 20.03l-2.6 1.17c-1.74-4.35-3.24-8.8-4.66-13.27l2.66-.98c1.4 4.42 2.87 8.8 4.6 13.08zm141.84 150.54l.08 2.83c-4.67.35-9.34.73-14.01.79l.08-2.84c4.6-.05 9.24-.44 13.85-.78zm-22.43 3.28c-4.73-.5-9.68-1.73-13.6-4.43l1.64-2.36c3.5 2.43 8.15 3.52 12.38 3.96zm-19.49-11l-.09-.16-.12-.23c-2.11-4.22-2.75-8.88-2.74-13.67v-.23l2.8.13c-.02 4.4.53 8.71 2.53 12.58l.1.17zm-.94-23.2l-2.67.91c-1.3-4.63-4.32-6.82-8.58-8.43l1.06-2.68c5.05 1.92 8.65 4.73 10.2 10.2zm-18.33-12.46l-.71 2.77c-4.52-1.02-9.03-1.92-13.5-3.11l.8-2.75c4.44 1.18 8.93 2.08 13.4 3.09zm-21.59-2.44c-4.74-1.8-8.74-3.54-13.18-5.7l-.24-.12 1.3-2.56.23.11c4.28 2.08 8.48 3.8 12.92 5.64zm-19.3-12.22l-1.47 2.47-.44-.26c-3.88-2.32-7.58-4.85-10.76-8.1l-.07-.05 2.08-1.98c3.13 3.16 6.85 5.67 10.66 7.92zm-17.56-13.3c-1.83-5.08-.67-9.86 1.25-14.85l2.58.94c-1.65 4.29-2.78 8.47-1.2 12.84zm7.01-21.98l-2.62-.83c1.53-4.42 2.2-8.6.94-13.08l2.67-.9c1.44 5.06.75 9.8-.99 14.81zm-3.18-22.74l-1.96 2.1a357.47 357.47 0 0 1-9.82-9.7l2.03-2.03c3.16 3.3 6.46 6.47 9.75 9.63zm-17.37-13.83a66.12 66.12 0 0 1-7.75-11.77l2.48-1.4a64.54 64.54 0 0 0 7.44 11.3z"/></defs><g><g transform="translate(-699 -3546)"><use fill="#fff" xlink:href="#h7gga"/></g></g></svg>