<svg xmlns="http://www.w3.org/2000/svg" xmlns:xlink="http://www.w3.org/1999/xlink" width="72" height="17" viewBox="0 0 72 17"><defs><path id="exxka" d="M750.03 1967.9a24.21 24.21 0 0 1 .94 1.75h.1l-.07-2.06-.03-2.77v-1.77c0-.4-.01-.68-.03-.86a1.06 1.06 0 0 0-.13-.41.67.67 0 0 0-.24-.24c-.1-.06-.29-.12-.55-.2v-.41h3.05v.41c-.26.07-.44.13-.54.2a.75.75 0 0 0-.25.21c-.07.1-.12.23-.15.4a5.4 5.4 0 0 0-.05.9v9.48h-1.06l-4.71-7.9a39.2 39.2 0 0 1-.98-1.75h-.14c.04.44.07 1.23.08 2.36l.03 3.4v1.73c0 .37.01.65.04.83.02.17.06.3.12.41.06.1.15.19.27.25.11.07.3.14.56.2v.42h-3.09v-.41c.35-.1.58-.2.7-.3.12-.11.2-.27.23-.47.04-.2.06-.52.06-.93v-7.32c0-.4-.01-.68-.04-.85a1.08 1.08 0 0 0-.14-.42.72.72 0 0 0-.26-.24c-.1-.06-.29-.12-.55-.2v-.41h2.65z"/><path id="exxkb" d="M759.57 1969.82c0 .28-.09.57-.26.85a2.07 2.07 0 0 1-1.78 1c-.27 0-.5-.04-.7-.11a1 1 0 0 1-.5-.39 1.3 1.3 0 0 1-.19-.76c0-.6.29-1.04.86-1.33.57-.3 1.43-.44 2.57-.45zm.1 2.66H762v-.41a2.55 2.55 0 0 1-.54-.2.7.7 0 0 1-.25-.22c-.05-.09-.1-.2-.12-.35a3 3 0 0 1-.05-.48l-.01-.88v-2.95c0-.74-.09-1.29-.25-1.66a1.69 1.69 0 0 0-.77-.81 2.9 2.9 0 0 0-1.34-.27c-.37 0-.74.04-1.1.11-.36.08-.72.18-1.09.32-.36.13-.8.34-1.35.62v1.1h1.1c.14-.46.35-.81.61-1.04.27-.23.63-.35 1.07-.35.4 0 .73.08.97.24.24.16.42.4.53.74.12.34.17.8.17 1.4v.54a8.66 8.66 0 0 0-3.67.78c-.81.45-1.22 1.09-1.22 1.91 0 .4.09.75.26 1.05.18.3.43.53.76.7.32.17.7.25 1.13.25.49 0 .94-.1 1.38-.31.43-.21.89-.57 1.38-1.07l.13.03z"/><path id="exxkc" d="M765.74 1964.39v.41c-.26.07-.44.13-.55.18a.6.6 0 0 0-.24.22.72.72 0 0 0-.08.37c0 .15.02.3.06.48.03.16.1.35.17.57l1.47 4.29 1.73-4.1c.11-.28.2-.5.24-.68.04-.17.06-.34.06-.49 0-.23-.06-.42-.19-.54a1.46 1.46 0 0 0-.7-.3v-.41h3.17v.41c-.22.05-.39.12-.5.21-.13.1-.25.24-.36.44-.12.2-.26.48-.43.84l-2.85 6.28h-1l-2.29-6.33a6.62 6.62 0 0 0-.38-.89c-.09-.16-.2-.28-.3-.36a1.3 1.3 0 0 0-.48-.18v-.42z"/><path id="exxkd" d="M772.55 1962.72h1.56v-1.64h-1.56zm-.86 9.77H775v-.42c-.3-.07-.5-.16-.63-.25a.74.74 0 0 1-.25-.44 5.05 5.05 0 0 1-.07-1v-6.06h-.52l-1.97.08v.45c.25.04.45.1.59.16.14.07.24.17.3.3.07.13.11.3.13.53l.01.87v3.69c0 .4-.01.68-.05.87-.04.19-.09.33-.15.42a.7.7 0 0 1-.24.2c-.1.06-.25.12-.47.18z"/><path id="exxke" d="M778.22 1966.97c0-.68.14-1.19.42-1.54.28-.36.69-.54 1.23-.54.31 0 .6.08.83.23.25.16.44.4.58.74.14.33.21.75.21 1.24 0 .28-.03.54-.09.8-.06.24-.15.46-.28.66a1.36 1.36 0 0 1-1.23.61c-.54 0-.96-.19-1.24-.57a2.67 2.67 0 0 1-.43-1.63zm.2 5.65c.36.03.76.05 1.22.05h1.26c.33 0 .6.03.8.1.2.08.35.17.46.29.11.12.19.25.23.4.04.15.06.3.06.46 0 .34-.1.64-.29.9-.2.24-.47.44-.83.57-.37.14-.8.2-1.31.2-.83 0-1.45-.11-1.85-.35-.4-.24-.6-.61-.6-1.12 0-.3.07-.58.21-.82.14-.24.36-.47.65-.68zm5.67-8.23h-3a5.22 5.22 0 0 0-2.47.03c-.39.12-.72.3-1 .53-.3.23-.52.53-.68.89-.16.35-.24.78-.24 1.26 0 .52.1.98.32 1.39.21.4.52.73.93.96-.46.35-.78.65-.96.92-.18.27-.27.56-.27.89 0 .28.07.52.23.73.15.21.36.37.62.48-.43.22-.77.47-1 .76a1.68 1.68 0 0 0-.08 1.96c.18.26.44.47.77.63.34.16.74.28 1.21.35.48.06 1 .1 1.57.1.76 0 1.43-.12 2-.35a2.95 2.95 0 0 0 1.33-.97c.3-.41.46-.89.46-1.42 0-.41-.08-.78-.24-1.1a1.72 1.72 0 0 0-.81-.74 3.31 3.31 0 0 0-1.47-.28h-2.03c-.38 0-.67-.02-.86-.07a.69.69 0 0 1-.4-.23.77.77 0 0 1-.13-.47c0-.32.22-.64.65-.97.34.12.74.18 1.2.18 1.05 0 1.86-.25 2.42-.75.57-.5.85-1.2.85-2.12 0-.35-.05-.68-.15-.98-.1-.3-.24-.54-.41-.72l.07-.1 1.57.07z"/><path id="exxkf" d="M789.67 1969.82c0 .28-.09.57-.26.85a2.07 2.07 0 0 1-1.78 1c-.27 0-.5-.04-.7-.11a1 1 0 0 1-.5-.39 1.3 1.3 0 0 1-.19-.76c0-.6.29-1.04.86-1.33.57-.3 1.43-.44 2.57-.45zm.1 2.66h2.32v-.41a2.55 2.55 0 0 1-.54-.2.7.7 0 0 1-.25-.22c-.05-.09-.1-.2-.12-.35a3 3 0 0 1-.05-.48l-.01-.88v-2.95c0-.74-.09-1.29-.25-1.66a1.69 1.69 0 0 0-.77-.81 2.9 2.9 0 0 0-1.34-.27c-.37 0-.74.04-1.1.11-.36.08-.72.18-1.09.32-.36.13-.8.34-1.35.62v1.1h1.1c.14-.46.35-.81.61-1.04.27-.23.63-.35 1.07-.35.4 0 .73.08.97.24.24.16.42.4.53.74.12.34.17.8.17 1.4v.54a8.66 8.66 0 0 0-3.67.78c-.81.45-1.22 1.09-1.22 1.91 0 .4.09.75.26 1.05.18.3.43.53.76.7.32.17.7.25 1.13.25.49 0 .94-.1 1.38-.31.43-.21.89-.57 1.38-1.07l.13.03z"/><path id="exxkg" d="M792.88 1964.81c.28-.04.51-.12.69-.23.17-.12.3-.26.4-.44.1-.18.18-.4.24-.67l.18-1.17h1.2v2.1h2.73v.85h-2.73v3.76c0 .55.02.99.07 1.3.04.33.13.59.25.77.12.18.27.32.42.4.16.07.36.11.61.11.23 0 .44-.04.64-.14.2-.09.39-.22.58-.4l.38.46c-.4.39-.78.67-1.14.85-.35.17-.73.26-1.1.26-.74 0-1.28-.22-1.63-.65-.36-.43-.54-1.1-.54-2.03v-4.7h-1.25z"/><path id="exxkh" d="M800.76 1968.34c0-1.1.18-1.94.55-2.53.36-.6.88-.9 1.57-.9.4 0 .76.14 1.08.4.32.25.57.65.75 1.2.18.55.27 1.24.27 2.06 0 .45-.03.88-.1 1.29-.08.4-.2.77-.37 1.08-.16.3-.38.55-.64.74-.27.18-.6.27-.97.27-.69 0-1.22-.31-1.59-.93a5.31 5.31 0 0 1-.55-2.68zm2.01 4.28c.78 0 1.46-.16 2.03-.48.57-.32 1-.8 1.32-1.44.3-.65.46-1.44.46-2.37 0-1.32-.3-2.32-.93-3.03-.62-.7-1.53-1.05-2.74-1.05a3.9 3.9 0 0 0-1.93.47c-.56.31-1 .79-1.33 1.43a5.21 5.21 0 0 0-.49 2.36c0 1.36.3 2.38.93 3.07.62.7 1.51 1.04 2.68 1.04z"/><path id="exxki" d="M810.58 1965.8l.12.02c.31-.37.6-.67.86-.89a2.9 2.9 0 0 1 1.9-.68c.34 0 .63.02.9.05v1.95h-.96a2 2 0 0 0-.43-.67.9.9 0 0 0-.63-.2c-.2 0-.4.05-.6.17-.2.12-.4.3-.58.52-.19.23-.32.44-.39.63-.07.2-.1.44-.1.7v2.97c0 .51.03.87.1 1.06.05.2.16.34.3.43.14.09.36.16.65.2v.42h-3.41v-.41c.21-.07.37-.13.46-.18.1-.05.17-.12.24-.21a1 1 0 0 0 .15-.41c.04-.2.05-.48.05-.88v-3.69l-.01-.87c-.02-.22-.06-.4-.12-.53a.65.65 0 0 0-.31-.3 2.44 2.44 0 0 0-.59-.16v-.44l1.98-.08h.52z"/></defs><g><g transform="translate(-743 -1960)"><use fill="#fffefe" xlink:href="#exxka"/></g><g transform="translate(-743 -1960)"><use fill="#fffefe" xlink:href="#exxkb"/></g><g transform="translate(-743 -1960)"><use fill="#fffefe" xlink:href="#exxkc"/></g><g clip-path="url(#clip-93BF527C-03B7-446B-9549-93C7A43F18D6)" transform="translate(-743 -1960)"><use fill="#fffefe" xlink:href="#exxkd"/></g><g clip-path="url(#clip-93BF527C-03B7-446B-9549-93C7A43F18D6)" transform="translate(-743 -1960)"><use fill="#fffefe" xlink:href="#exxke"/></g><g clip-path="url(#clip-93BF527C-03B7-446B-9549-93C7A43F18D6)" transform="translate(-743 -1960)"><use fill="#fffefe" xlink:href="#exxkf"/></g><g clip-path="url(#clip-93BF527C-03B7-446B-9549-93C7A43F18D6)" transform="translate(-743 -1960)"><use fill="#fffefe" xlink:href="#exxkg"/></g><g clip-path="url(#clip-93BF527C-03B7-446B-9549-93C7A43F18D6)" transform="translate(-743 -1960)"><use fill="#fffefe" xlink:href="#exxkh"/></g><g clip-path="url(#clip-93BF527C-03B7-446B-9549-93C7A43F18D6)" transform="translate(-743 -1960)"><use fill="#fffefe" xlink:href="#exxki"/></g></g></svg>