<svg xmlns="http://www.w3.org/2000/svg" xmlns:xlink="http://www.w3.org/1999/xlink" width="78" height="23" viewBox="0 0 78 23"><defs><path id="x8axa" d="M807.76 4269.99l-1.23.33-1.16-1.23a8.1 8.1 0 0 1-2.14.93c-.75.2-1.6.3-2.58.3-2.66 0-4.66-.91-6-2.74-1.36-1.82-2.03-4.54-2.03-8.13 0-2.25.37-4.21 1.1-5.9.74-1.7 1.8-3 3.18-3.92 1.38-.9 3-1.36 4.86-1.36a23.14 23.14 0 0 1 5.84.74v4.34h-1.56a7.33 7.33 0 0 0-1.01-2.22 3.3 3.3 0 0 0-1.4-1.13 5.39 5.39 0 0 0-2.06-.34 4.5 4.5 0 0 0-3.01 1.1 7.1 7.1 0 0 0-2.02 3.26 16.53 16.53 0 0 0-.71 5.2c0 2.07.2 3.83.6 5.3.4 1.46 1.01 2.56 1.81 3.3.8.74 1.78 1.11 2.95 1.11 1.24 0 2.17-.27 2.77-.81.6-.54.9-1.38.9-2.5v-.95c0-.95-.06-1.63-.16-2.05-.1-.42-.27-.75-.52-.98a2.96 2.96 0 0 0-1.25-.57v-.77h6.38v.77c-.38.13-.67.27-.86.43a1.6 1.6 0 0 0-.43.61c-.1.24-.17.54-.2.9-.04.35-.06.85-.06 1.5z"/><path id="x8axb" d="M811.65 4254.98h4.5v8.03c0 1.24.05 2.17.14 2.81.1.65.24 1.13.43 1.46.19.32.45.6.8.82.35.22.83.33 1.44.33.4 0 .78-.08 1.15-.24.37-.16.78-.43 1.23-.83.45-.4.78-.78.97-1.17a3 3 0 0 0 .3-1.36v-5.92c0-.6-.02-1.05-.05-1.36-.03-.3-.09-.55-.16-.73a1.59 1.59 0 0 0-.26-.45c-.1-.12-.24-.22-.43-.32-.18-.1-.48-.2-.89-.3v-.77h4.5v10.78c0 .81.02 1.4.05 1.75.03.36.1.65.2.86.1.2.27.38.5.5.21.14.6.26 1.18.38v.82l-3.62.16h-.96l.1-2.6-.24-.05c-.88.95-1.71 1.64-2.5 2.08-.8.44-1.6.66-2.4.66-.96 0-1.75-.19-2.37-.56a3.41 3.41 0 0 1-1.38-1.7 8.74 8.74 0 0 1-.46-3.18v-5.97c0-.88-.04-1.5-.1-1.82-.07-.33-.2-.6-.4-.8a3 3 0 0 0-1.27-.54z"/><path id="x8axc" d="M832.94 4260.98c.12-1.61.5-2.85 1.15-3.72a3.07 3.07 0 0 1 2.6-1.3c.7 0 1.29.19 1.73.57.44.39.77.94 1 1.66.21.72.36 1.65.42 2.79zm8.59 5.38a6.91 6.91 0 0 1-2.06 1.57c-.7.32-1.47.48-2.33.48a4.02 4.02 0 0 1-2.49-.72 3.95 3.95 0 0 1-1.37-1.99c-.28-.84-.42-1.89-.42-3.13v-.28h9.95c-.03-1.43-.17-2.6-.42-3.48a6.44 6.44 0 0 0-1.04-2.21 4.56 4.56 0 0 0-1.8-1.39 6.57 6.57 0 0 0-2.7-.5 6.38 6.38 0 0 0-6 3.76 9.66 9.66 0 0 0-.86 4.15c0 2.53.55 4.45 1.66 5.75 1.1 1.3 2.74 1.95 4.9 1.95a6.95 6.95 0 0 0 4.09-1.28c.56-.4 1.18-.95 1.85-1.65z"/><path id="x8axd" d="M856.22 4258.44h-1.51a4.8 4.8 0 0 0-.82-1.5 2.62 2.62 0 0 0-1.07-.76c-.4-.15-.9-.22-1.47-.22-.85 0-1.52.2-2.02.59-.5.4-.75.93-.75 1.62 0 .48.1.88.3 1.2.2.31.51.6.94.88.42.28 1.16.64 2.22 1.09 1.07.46 1.9.89 2.49 1.28.58.39 1.04.84 1.37 1.36.33.51.5 1.13.5 1.84 0 .83-.14 1.54-.43 2.1a3.63 3.63 0 0 1-1.2 1.4c-.51.35-1.13.6-1.84.77-.7.15-1.48.23-2.33.23-.88 0-1.74-.06-2.57-.2-.83-.13-1.64-.3-2.43-.5v-3.3h1.55c.28.96.7 1.66 1.26 2.1.56.44 1.33.65 2.3.65.38 0 .75-.04 1.12-.11.36-.08.69-.21.97-.4a2 2 0 0 0 .68-.75c.17-.31.25-.7.25-1.18 0-.54-.1-.97-.32-1.31a3.03 3.03 0 0 0-.97-.93c-.45-.27-1.23-.65-2.34-1.12-.96-.4-1.73-.8-2.3-1.17a4.55 4.55 0 0 1-1.37-1.34 3.33 3.33 0 0 1-.5-1.83c0-.87.24-1.62.7-2.25a4.35 4.35 0 0 1 2.03-1.46c.89-.34 1.92-.51 3.11-.51a19.22 19.22 0 0 1 4.45.5z"/><path id="x8axe" d="M858.59 4255.77c.52-.09.95-.23 1.28-.44.32-.21.58-.49.76-.82.19-.33.33-.74.44-1.25.1-.5.22-1.22.33-2.18h2.24v3.9h5.1v1.6h-5.1v7.02c0 1.02.04 1.83.13 2.44.08.6.24 1.07.47 1.42.23.34.5.58.79.73.3.15.67.22 1.14.22.42 0 .81-.09 1.18-.26.37-.17.73-.42 1.09-.75l.71.85a8.53 8.53 0 0 1-2.12 1.58c-.67.33-1.36.5-2.08.5-1.36 0-2.37-.41-3.03-1.22-.66-.8-1-2.06-1-3.78v-8.76h-2.33z"/></defs><g><g transform="translate(-792 -4248)"><use fill="#ccbca6" xlink:href="#x8axa"/></g><g transform="translate(-792 -4248)"><use fill="#ccbca6" xlink:href="#x8axb"/></g><g transform="translate(-792 -4248)"><use fill="#ccbca6" xlink:href="#x8axc"/></g><g transform="translate(-792 -4248)"><use fill="#ccbca6" xlink:href="#x8axd"/></g><g transform="translate(-792 -4248)"><use fill="#ccbca6" xlink:href="#x8axe"/></g></g></svg>