<svg xmlns="http://www.w3.org/2000/svg" xmlns:xlink="http://www.w3.org/1999/xlink" width="44" height="13" viewBox="0 0 44 13"><defs><path id="g55ba" d="M1034.8 1974.62l-.66.17-.62-.66c-.37.23-.75.4-1.15.5-.4.1-.86.16-1.38.16-1.43 0-2.5-.49-3.23-1.47-.72-.97-1.08-2.43-1.08-4.36 0-1.2.2-2.26.6-3.16.39-.91.95-1.61 1.7-2.1.73-.49 1.6-.73 2.6-.73a12.54 12.54 0 0 1 3.13.4v2.33h-.84c-.15-.51-.33-.9-.54-1.2-.2-.28-.46-.48-.75-.6a2.87 2.87 0 0 0-1.1-.19c-.62 0-1.15.2-1.62.6-.46.4-.82.97-1.08 1.75-.25.77-.38 1.7-.38 2.78 0 1.1.1 2.05.32 2.84.22.78.54 1.37.97 1.77.43.4.96.6 1.59.6.66 0 1.16-.15 1.48-.44.32-.29.48-.73.48-1.34v-.5c0-.51-.03-.88-.08-1.1-.05-.23-.15-.4-.28-.53a1.56 1.56 0 0 0-.67-.3v-.42h3.42v.41c-.2.07-.36.15-.46.24-.1.08-.18.2-.23.32-.06.13-.1.3-.11.48-.02.19-.03.46-.03.8z"/><path id="g55bb" d="M1039.36 1967.97l.12.02c.31-.37.6-.67.86-.89a2.9 2.9 0 0 1 1.9-.68c.34 0 .63.02.9.05v1.95h-.96a2 2 0 0 0-.43-.67.9.9 0 0 0-.63-.2c-.2 0-.4.05-.6.17-.2.12-.4.3-.58.52-.19.23-.32.44-.39.63-.07.2-.1.44-.1.7v2.97c0 .51.03.87.1 1.06.05.2.16.34.3.43.14.09.36.16.65.2v.42h-3.41v-.41c.21-.07.37-.13.46-.18.1-.05.17-.12.24-.21a1 1 0 0 0 .15-.41c.03-.2.05-.48.05-.88v-3.69c0-.36 0-.65-.02-.87 0-.22-.05-.4-.11-.53a.65.65 0 0 0-.31-.3 2.44 2.44 0 0 0-.59-.16v-.44l1.98-.08h.52z"/><path id="g55bc" d="M1045.63 1969.78c.06-.86.27-1.53.62-2 .34-.46.8-.7 1.39-.7.38 0 .7.11.93.32.24.2.41.5.53.89.12.38.2.88.23 1.49zm4.6 2.89a2.92 2.92 0 0 1-2.35 1.1c-.54 0-.99-.13-1.33-.39a2.12 2.12 0 0 1-.74-1.07 5.45 5.45 0 0 1-.22-1.68v-.15h5.33a7.8 7.8 0 0 0-.22-1.86 3.45 3.45 0 0 0-.56-1.19 2.45 2.45 0 0 0-.96-.74c-.4-.18-.89-.27-1.46-.27a3.43 3.43 0 0 0-3.22 2.01c-.3.65-.45 1.39-.45 2.23 0 1.36.3 2.39.89 3.09.6.7 1.47 1.04 2.63 1.04a3.74 3.74 0 0 0 2.19-.69c.3-.21.63-.5 1-.88z"/><path id="g55bd" d="M1054.08 1969.78c.07-.86.27-1.53.62-2 .34-.46.8-.7 1.39-.7.38 0 .7.11.93.32.24.2.41.5.53.89.12.38.2.88.23 1.49zm4.6 2.89a2.92 2.92 0 0 1-2.35 1.1c-.54 0-.99-.13-1.33-.39a2.12 2.12 0 0 1-.74-1.07 5.45 5.45 0 0 1-.22-1.68v-.15h5.33a7.8 7.8 0 0 0-.22-1.86 3.45 3.45 0 0 0-.56-1.19 2.45 2.45 0 0 0-.96-.74c-.4-.18-.89-.27-1.46-.27a3.43 3.43 0 0 0-3.22 2.01c-.3.65-.45 1.39-.45 2.23 0 1.36.3 2.39.89 3.09.6.7 1.47 1.04 2.63 1.04a3.74 3.74 0 0 0 2.19-.69c.3-.21.63-.5 1-.88z"/><path id="g55be" d="M1063.16 1969.94h.27c.18 0 .34-.02.45-.06.15-.05.3-.14.47-.26a8 8 0 0 0 1.3-1.23c.14-.17.23-.33.28-.47a1 1 0 0 0 .07-.35c0-.17-.05-.3-.16-.4a.96.96 0 0 0-.5-.2v-.41h3.64v.42c-.26.05-.54.16-.83.34-.3.18-.6.42-.9.71l-1.95 1.85 2.44 3.18c.28.37.53.65.76.83.23.17.48.29.75.35v.41H1066v-.41a.74.74 0 0 0 .33-.1c.07-.05.1-.13.1-.24a.7.7 0 0 0-.04-.25 1.8 1.8 0 0 0-.2-.34l-.52-.73-1-1.36c-.2-.25-.33-.42-.42-.5a.75.75 0 0 0-.25-.16 1.06 1.06 0 0 0-.37-.06h-.47v2.04c0 .48.02.82.07 1 .04.2.13.34.25.44.13.1.34.18.63.26v.41h-3.36v-.41c.28-.08.47-.15.58-.23a.69.69 0 0 0 .24-.29c.05-.1.08-.25.1-.44.02-.2.03-.44.03-.74v-7.09l-.01-1.13c-.01-.22-.03-.4-.07-.55a.97.97 0 0 0-.15-.35.7.7 0 0 0-.26-.2c-.11-.05-.31-.1-.6-.16v-.44l2.04-.08h.5z"/></defs><g><g transform="translate(-1026 -1962)"><use fill="#fffefe" xlink:href="#g55ba"/></g><g transform="translate(-1026 -1962)"><use fill="#fffefe" xlink:href="#g55bb"/></g><g transform="translate(-1026 -1962)"><use fill="#fffefe" xlink:href="#g55bc"/></g><g transform="translate(-1026 -1962)"><use fill="#fffefe" xlink:href="#g55bd"/></g><g transform="translate(-1026 -1962)"><use fill="#fffefe" xlink:href="#g55be"/></g></g></svg>