<svg xmlns="http://www.w3.org/2000/svg" xmlns:xlink="http://www.w3.org/1999/xlink" width="49" height="17" viewBox="0 0 49 17"><defs><path id="fvapa" d="M457.05 1961.8v.43c-.27.05-.47.1-.61.18a.71.71 0 0 0-.32.3c-.07.12-.1.3-.1.51 0 .2.02.42.07.65.04.23.1.49.2.78l2.05 7.17 2.52-7.23a13.1 13.1 0 0 0 .25-1.02l.02-.24c0-.35-.08-.6-.24-.77-.16-.16-.44-.27-.82-.33v-.43h3.69v.43c-.25.06-.44.14-.58.26-.15.1-.3.29-.44.53a8.5 8.5 0 0 0-.52 1.18l-3.65 9.73h-1.15l-2.96-9.8c-.16-.53-.3-.9-.41-1.13a1.6 1.6 0 0 0-.4-.51c-.13-.11-.32-.2-.57-.26v-.43z"/><path id="fvapb" d="M465.5 1963.65h1.62v-1.7h-1.62zm-.9 10.14h3.45v-.43c-.3-.07-.52-.16-.65-.26a.77.77 0 0 1-.27-.45c-.04-.2-.07-.55-.07-1.05v-6.28h-.53l-2.05.08v.46c.26.05.47.1.61.17s.25.17.32.3c.07.15.11.33.12.56.02.23.02.53.02.9v3.83c0 .41-.02.72-.06.9-.03.2-.09.35-.15.44a.72.72 0 0 1-.25.22c-.1.05-.26.11-.49.18z"/><path id="fvapc" d="M471.94 1968.9h.29c.19 0 .35-.02.47-.06.15-.05.3-.14.48-.27a8.48 8.48 0 0 0 1.36-1.28c.14-.17.23-.34.29-.48.04-.12.07-.25.07-.37a.53.53 0 0 0-.17-.41 1 1 0 0 0-.53-.2v-.44H478v.43c-.27.06-.56.18-.86.36-.3.2-.62.44-.94.74l-2.02 1.92 2.53 3.3c.3.39.56.67.8.86.23.18.49.3.77.36v.43h-3.37v-.43a.76.76 0 0 0 .33-.1c.08-.05.11-.13.11-.25a.73.73 0 0 0-.04-.26c-.04-.08-.1-.2-.2-.35l-.55-.76-1.04-1.4c-.2-.27-.34-.44-.43-.52a.79.79 0 0 0-.27-.18c-.09-.03-.22-.05-.37-.05h-.5v2.1c0 .51.03.86.07 1.06.05.2.14.34.27.44.13.1.35.2.65.27v.43h-3.49v-.43c.3-.07.5-.15.61-.24a.7.7 0 0 0 .25-.29c.05-.11.08-.27.1-.47.02-.2.03-.45.03-.76v-7.36-1.17c-.02-.23-.04-.42-.08-.57a.98.98 0 0 0-.16-.37.7.7 0 0 0-.27-.2c-.12-.06-.32-.11-.62-.17v-.45l2.12-.09h.52z"/><path id="fvapd" d="M479.93 1963.65h1.62v-1.7h-1.62zm-.9 10.14h3.45v-.43c-.3-.07-.52-.16-.65-.26a.77.77 0 0 1-.27-.45c-.04-.2-.07-.55-.07-1.05v-6.28h-.53l-2.05.08v.46c.26.05.47.1.61.17s.25.17.32.3c.07.15.11.33.13.56l.01.9v3.83c0 .41-.02.72-.05.9-.04.2-.1.35-.16.44a.72.72 0 0 1-.25.22c-.1.05-.26.11-.49.18z"/><path id="fvape" d="M492.6 1973.79h-3.47v-.43c.23-.07.4-.13.5-.18.1-.06.17-.13.24-.22.07-.1.12-.24.16-.44.04-.2.06-.5.06-.9v-2.3c0-.4-.01-.77-.04-1.1-.02-.34-.06-.62-.12-.83a1.69 1.69 0 0 0-.2-.5 1.3 1.3 0 0 0-.65-.51 1.72 1.72 0 0 0-.56-.08c-.23 0-.44.05-.65.14-.2.1-.43.25-.67.47-.25.22-.43.44-.54.66a1.6 1.6 0 0 0-.17.75v3.27c0 .5.03.86.07 1.05.05.2.14.35.27.45.13.1.35.2.65.27v.43h-3.45v-.43c.23-.07.4-.13.5-.18.09-.06.17-.13.24-.22.06-.1.12-.24.15-.44.04-.19.06-.49.06-.9v-3.83c0-.37 0-.68-.02-.9a1.38 1.38 0 0 0-.12-.56.67.67 0 0 0-.32-.3 2.5 2.5 0 0 0-.61-.17v-.47l2.06-.08h.53l-.1 1.43.13.04c.43-.44.78-.75 1.05-.94.26-.19.53-.33.8-.44a3 3 0 0 1 1.71-.04 1.87 1.87 0 0 1 1.13.9c.13.23.22.5.29.82.06.31.09.72.09 1.2v3.31c0 .4.01.7.03.88.03.18.07.32.13.42.05.1.14.19.25.25.11.07.3.14.58.22z"/><path id="fvapf" d="M495.86 1968.06c0-.7.15-1.23.44-1.6.3-.37.72-.55 1.28-.55.32 0 .61.08.87.24.25.16.45.41.6.76.14.34.21.77.21 1.3 0 .28-.03.55-.09.81s-.16.5-.29.7a1.42 1.42 0 0 1-1.28.63c-.56 0-1-.2-1.29-.6-.3-.4-.45-.96-.45-1.69zm.22 5.87c.37.03.78.05 1.26.05h1.3c.35 0 .62.04.83.11.21.08.38.17.5.3.1.12.18.26.22.41.05.16.07.32.07.48 0 .35-.1.66-.3.93-.2.26-.5.46-.87.6a3.9 3.9 0 0 1-1.36.21c-.86 0-1.5-.12-1.92-.37a1.26 1.26 0 0 1-.62-1.17c0-.31.07-.6.22-.84.15-.25.37-.49.67-.71zm5.88-8.54h-3.11a5.35 5.35 0 0 0-2.57.03c-.4.12-.75.3-1.05.55-.3.24-.52.55-.69.92-.17.37-.25.8-.25 1.31 0 .54.1 1.02.33 1.44.22.42.54.76.96 1-.47.36-.8.68-1 .96a1.6 1.6 0 0 0-.27.92c0 .29.08.54.23.76.16.22.38.38.65.5-.45.22-.8.48-1.04.79-.25.3-.37.63-.37 1 0 .41.1.75.28 1.03.2.27.46.49.81.66.35.16.77.28 1.26.35.49.07 1.03.1 1.62.1.8 0 1.5-.11 2.1-.35.59-.24 1.05-.58 1.36-1.01.32-.43.48-.92.48-1.47 0-.44-.09-.82-.25-1.14a1.79 1.79 0 0 0-.84-.78c-.4-.2-.9-.29-1.52-.29h-2.11c-.4 0-.7-.02-.9-.07a.71.71 0 0 1-.41-.23.8.8 0 0 1-.13-.5c0-.32.22-.66.67-1 .35.13.77.19 1.25.19 1.09 0 1.92-.26 2.51-.78a2.8 2.8 0 0 0 .88-2.21c0-.36-.05-.7-.15-1.02-.11-.3-.25-.56-.44-.74l.08-.1 1.63.07z"/></defs><g><g transform="translate(-453 -1961)"><use fill="#fffefe" xlink:href="#fvapa"/></g><g clip-path="url(#clip-3053AB5D-1EE5-4B02-B4C3-F41812214E88)" transform="translate(-453 -1961)"><use fill="#fffefe" xlink:href="#fvapb"/></g><g clip-path="url(#clip-3053AB5D-1EE5-4B02-B4C3-F41812214E88)" transform="translate(-453 -1961)"><use fill="#fffefe" xlink:href="#fvapc"/></g><g clip-path="url(#clip-3053AB5D-1EE5-4B02-B4C3-F41812214E88)" transform="translate(-453 -1961)"><use fill="#fffefe" xlink:href="#fvapd"/></g><g clip-path="url(#clip-3053AB5D-1EE5-4B02-B4C3-F41812214E88)" transform="translate(-453 -1961)"><use fill="#fffefe" xlink:href="#fvape"/></g><g clip-path="url(#clip-3053AB5D-1EE5-4B02-B4C3-F41812214E88)" transform="translate(-453 -1961)"><use fill="#fffefe" xlink:href="#fvapf"/></g></g></svg>