<svg xmlns="http://www.w3.org/2000/svg" xmlns:xlink="http://www.w3.org/1999/xlink" width="118" height="118" viewBox="0 0 118 118"><defs><path id="w370a" d="M139 636v-40h40v40z"/><path id="w370b" d="M100 675v-40h40v40z"/><path id="w370c" d="M178 675v-40h40v40z"/><path id="w370d" d="M139 674v40h40v-40z"/><path id="w370i" d="M194.5 650.91l4.33 4.59-4.33 4.59 1.33 1.41 5.67-6-5.67-6z"/><path id="w370j" d="M154.41 620l4.59-4.33 4.59 4.33 1.41-1.33-6-5.67-6 5.67z"/><path id="w370k" d="M154.41 691l4.59 4.33 4.59-4.33 1.41 1.33-6 5.67-6-5.67z"/><path id="w370l" d="M123.5 650.91l-4.33 4.59 4.33 4.59-1.33 1.41-5.67-6 5.67-6z"/><clipPath id="w370e"><use fill="#fff" xlink:href="#w370a"/></clipPath><clipPath id="w370f"><use fill="#fff" xlink:href="#w370b"/></clipPath><clipPath id="w370g"><use fill="#fff" xlink:href="#w370c"/></clipPath><clipPath id="w370h"><use fill="#fff" xlink:href="#w370d"/></clipPath></defs><g><g transform="translate(-100 -596)"><use fill="#fff" fill-opacity="0" stroke="#fff" stroke-miterlimit="50" stroke-width="2" clip-path="url(&quot;#w370e&quot;)" xlink:href="#w370a"/></g><g transform="translate(-100 -596)"><use fill="#fff" fill-opacity="0" stroke="#fff" stroke-miterlimit="50" stroke-width="2" clip-path="url(&quot;#w370f&quot;)" xlink:href="#w370b"/></g><g transform="translate(-100 -596)"><use fill="#fff" fill-opacity="0" stroke="#fff" stroke-miterlimit="50" stroke-width="2" clip-path="url(&quot;#w370g&quot;)" xlink:href="#w370c"/></g><g transform="translate(-100 -596)"><use fill="#fff" fill-opacity="0" stroke="#fff" stroke-miterlimit="50" stroke-width="2" clip-path="url(&quot;#w370h&quot;)" xlink:href="#w370d"/></g><g transform="translate(-100 -596)"><use fill="#fff" xlink:href="#w370i"/></g><g transform="translate(-100 -596)"><use fill="#fff" xlink:href="#w370j"/></g><g transform="translate(-100 -596)"><use fill="#fff" xlink:href="#w370k"/></g><g transform="translate(-100 -596)"><use fill="#fff" xlink:href="#w370l"/></g></g></svg>