<?xml version="1.0" encoding="utf-8"?>
<svg xmlns="http://www.w3.org/2000/svg" xmlns:xlink="http://www.w3.org/1999/xlink">

  <symbol viewBox="0 0 10 7" id="arrBottomMin">
    <path transform="translate(-301 -612)" d="M303.46 613.55l2.58 2.58 2.59-2.6a.68.68 0 0 1 .96.97l-2.99 2.99a.68.68 0 0 1-.62.18.67.67 0 0 1-.5-.2l-2.98-2.96a.68.68 0 0 1 .96-.96z"/>
  </symbol>

  <symbol viewBox="0 0 13 20" id="mapMedal">
    <g transform="translate(-425 -579)">
      <path id="kfida" d="M431.67 599a5 5 0 1 1 0-10 5 5 0 0 1 0 10zm0-8.33a3.33 3.33 0 1 0 0 6.66 3.33 3.33 0 0 0 0-6.66z"/>
      <path id="kfidc" d="M432.13 587.9l-2.9-7.23h4.48l1.77 5.83zm4.98-1.77l-1.85-6.11a1.48 1.48 0 0 0-1.4-1.02h-4.92c-1.01 0-1.72 1-1.39 1.95l3.34 8.36c.18.43.67.64 1.1.46l4.26-1.8c.74-.28 1.12-1.1.86-1.84z"/>
      <path id="kfide" d="M434.7 587.8l-2.66-8.22a.83.83 0 1 0-1.59.51l2.67 8.22a.83.83 0 1 0 1.59-.51z"/>
      <path id="kfidg" d="M429.14 580.43l3.3 8.26a.83.83 0 0 1-1.06 1.09l-4.6-1.67a1.45 1.45 0 0 1-.89-1.8l1.61-6.1c.25-.96 1.66-.75 1.64.22zm-1.6 6.18l2.66.97-1.76-4.4z"/>
    </g>
  </symbol>

</svg>