<svg xmlns="http://www.w3.org/2000/svg" xmlns:xlink="http://www.w3.org/1999/xlink" width="15" height="15" viewBox="0 0 15 15"><defs><path id="a" d="M1325 1222.14v6.72a4.14 4.14 0 0 1-4.14 4.14h-6.72a4.14 4.14 0 0 1-4.14-4.14v-6.72a4.14 4.14 0 0 1 4.14-4.14h6.72a4.14 4.14 0 0 1 4.14 4.14zm-1.33 6.72v-6.72c0-1.55-1.26-2.8-2.81-2.8h-6.72a2.81 2.81 0 0 0-2.81 2.8v6.72c0 1.55 1.26 2.8 2.8 2.8h6.73c1.55 0 2.8-1.25 2.8-2.8zm-2.3-3.36a3.87 3.87 0 1 1-7.74 0 3.87 3.87 0 0 1 7.73 0zm-1.34 0a2.54 2.54 0 1 0-5.07 0 2.54 2.54 0 0 0 5.07 0zm2.19-4.7a.98.98 0 0 1 0 1.37.98.98 0 0 1-1.67-.69.98.98 0 0 1 1.67-.69z"/></defs><use fill="#fff" xlink:href="#a" transform="translate(-1310 -1218)"/></svg>