<svg xmlns="http://www.w3.org/2000/svg" xmlns:xlink="http://www.w3.org/1999/xlink" width="17" height="10" viewBox="0 0 17 10"><defs><path id="a" d="M1198.63 1226.36c.56.57 1.16 1.1 1.67 1.74.22.28.43.57.6.9.22.45.01.96-.38 1l-2.48-.01a1.88 1.88 0 0 1-1.58-.67c-.34-.36-.66-.75-.99-1.12-.13-.15-.27-.3-.44-.41-.34-.23-.64-.16-.83.2-.2.38-.24.8-.26 1.2-.03.61-.2.77-.79.8a6.14 6.14 0 0 1-3.54-.8 7.96 7.96 0 0 1-2.39-2.31 31.61 31.61 0 0 1-3.13-5.82c-.2-.46-.06-.7.43-.71.8-.02 1.61-.02 2.42 0 .33 0 .55.2.68.52.43 1.12.97 2.18 1.64 3.17.18.26.36.52.62.7.29.21.5.14.64-.19.09-.21.12-.44.14-.66.07-.78.08-1.56-.04-2.33-.06-.48-.33-.8-.8-.89-.23-.05-.2-.14-.08-.28.2-.24.39-.39.76-.39h2.8c.44.09.54.3.6.76v3.23c0 .18.09.7.4.82.24.09.4-.12.56-.28.67-.74 1.14-1.61 1.57-2.52.2-.4.35-.8.51-1.22.12-.3.3-.46.64-.45h2.69c.08 0 .16 0 .24.02.45.08.58.28.44.74-.23.72-.66 1.32-1.08 1.93-.44.65-.93 1.27-1.37 1.92-.41.6-.38.9.13 1.4z"/></defs><use fill="#fff" xlink:href="#a" transform="translate(-1184 -1220)"/></svg>