<svg xmlns="http://www.w3.org/2000/svg" xmlns:xlink="http://www.w3.org/1999/xlink" width="174" height="43" viewBox="0 0 174 43"><defs><path id="a" d="M1917.01 41.05c.23.61.5 1.54.83 2.77a316.37 316.37 0 0 1 2.3 9.48c.44 1.9.87 3.8 1.3 5.76a2775.29 2775.29 0 0 1 2.44 11.07l.95 4.33.69 2.88a327.53 327.53 0 0 0 2.81-7.73 2050.1 2050.1 0 0 0 3.62-10.43 671.65 671.65 0 0 1 3.73-10.4c.59-1.6 1.14-3.05 1.67-4.37a71.99 71.99 0 0 1 1.44-3.36l2 .24c-.3 1.02-.58 2.22-.88 3.58a107.96 107.96 0 0 0-1.61 9.41 137.27 137.27 0 0 0-1.08 10.53c-.1 1.74-.14 3.4-.14 4.97 0 3.07.22 5.4.66 7 .44 1.59 1.12 2.39 2.05 2.39.4 0 .8-.17 1.17-.5.4-.32.8-.8 1.22-1.45.44-.65.9-1.46 1.4-2.42l1.7-3.36.25-.51 1 .75-.24.51c-.81 1.63-1.55 3.05-2.2 4.27a23.6 23.6 0 0 1-1.86 3.02 7.38 7.38 0 0 1-1.78 1.83c-.59.4-1.23.6-1.93.6-.98 0-1.8-.23-2.45-.7a5.24 5.24 0 0 1-1.58-2.04c-.4-.9-.68-1.98-.86-3.25-.16-1.26-.24-2.7-.24-4.29 0-1.73.09-3.55.27-5.46a134.86 134.86 0 0 1 2.12-14.4l-11.02 31.4-2-.5c0-.34-.11-1.06-.32-2.16-.21-1.13-.5-2.47-.83-4.05-.35-1.6-.74-3.34-1.18-5.24a1592.83 1592.83 0 0 0-4.94-20.94l.18 3.54a161.87 161.87 0 0 1 .2 6.53c0 2.94-.18 5.55-.52 7.82a33.58 33.58 0 0 1-1.34 5.95 18.4 18.4 0 0 1-2 4.24 12.25 12.25 0 0 1-2.45 2.78c-.86.7-1.75 1.2-2.66 1.51-.9.3-1.78.46-2.64.46-.87 0-1.68-.14-2.42-.44a5.85 5.85 0 0 1-3.33-2.97 5.09 5.09 0 0 1-.51-2.26c0-.96.16-1.88.49-2.76.3-.88.75-1.7 1.32-2.46.55-.78 1.21-1.5 1.98-2.17.76-.67 1.59-1.28 2.47-1.85l.73.75a11.47 11.47 0 0 0-3.06 3.24 8.77 8.77 0 0 0-.88 1.95 6.63 6.63 0 0 0-.31 2.03 4.92 4.92 0 0 0 1.2 3.24 4.16 4.16 0 0 0 3.15 1.36 6.02 6.02 0 0 0 4.25-1.82c.7-.67 1.36-1.54 1.98-2.61a17.7 17.7 0 0 0 1.64-4c.47-1.6.84-3.45 1.12-5.58a57.66 57.66 0 0 0 .34-10.16 89.4 89.4 0 0 0-.17-3.37 124.95 124.95 0 0 0-.9-9.48c-.12-.78-.23-1.35-.35-1.7zm30.77 30.15l-.24.48-.25.51-1-.75.24-.51a25.03 25.03 0 0 0 1.66-4.85l.45-1.93c.1-.55.22-.95.34-1.2.1-.19.23-.34.41-.46a3.47 3.47 0 0 1 1.18-.48c.2-.04.33-.05.41-.05.36 0 .6.07.71.22.13.14.2.4.2.78a220.53 220.53 0 0 0-.61 7.58 82.4 82.4 0 0 0-.1 4.1 16 16 0 0 0 .14 2.43c.1.58.22 1.02.37 1.32.16.29.33.47.51.56.2.08.4.12.59.12.26 0 .55-.12.88-.34.33-.23.7-.63 1.15-1.2.44-.58.94-1.36 1.51-2.34.57-.99 1.24-2.24 2-3.75l.28-.51 1 .75-.27.51a385.7 385.7 0 0 1-1.86 3.56 27.2 27.2 0 0 1-1.86 3.12c-.61.91-1.24 1.65-1.88 2.22-.63.55-1.27.83-1.9.83-.67 0-1.25-.13-1.74-.39a3.25 3.25 0 0 1-1.2-1.34 8.54 8.54 0 0 1-.7-2.44 27.28 27.28 0 0 1-.22-3.78v-1.31c0-.47.01-.96.04-1.46zm5-14.24a1.95 1.95 0 0 1-2 2 1.95 1.95 0 0 1-2-2c0-.55.2-1.02.59-1.41.39-.4.86-.59 1.42-.59.57 0 1.04.2 1.41.59.4.39.59.86.59 1.41zm43.04 16.23c0 1.43.04 2.56.1 3.4.08.82.2 1.45.34 1.87.17.42.37.69.62.8a2 2 0 0 0 .85.17c.44 0 .9-.13 1.37-.41.47-.28.94-.63 1.4-1.07a26.6 26.6 0 0 0 3.93-5.5l.75-1.52.95.7v.17l-.7 1.4-.64 1.19c-.29.53-.66 1.14-1.1 1.8a39.5 39.5 0 0 1-1.49 2.05c-.55.7-1.15 1.34-1.78 1.92a9.7 9.7 0 0 1-2 1.44 4.51 4.51 0 0 1-3.94.22 2.98 2.98 0 0 1-1.32-1.2 7.28 7.28 0 0 1-.83-2.36c-.18-1-.27-2.28-.27-3.82 0-.6 0-1.17.03-1.7l.12-2c-.83 1.6-1.8 3.15-2.89 4.65a26.7 26.7 0 0 1-3.47 3.97 16.83 16.83 0 0 1-3.88 2.75 8.67 8.67 0 0 1-4.06 1.05c-.86 0-1.69-.15-2.47-.46a5.77 5.77 0 0 1-2.08-1.41 7.12 7.12 0 0 1-1.44-2.49c-.36-1-.53-2.21-.53-3.6 0-2.25.25-4.45.75-6.61a34.79 34.79 0 0 1 2.06-6.27 39.61 39.61 0 0 1 3.1-5.8 44.58 44.58 0 0 1 3.84-5.14 39.36 39.36 0 0 1 8.8-7.56 22.7 22.7 0 0 1 4.37-2.1 12.5 12.5 0 0 1 4-.72c1.37 0 2.47.35 3.28 1.05a3.6 3.6 0 0 1 1.22 2.92c0 .85-.17 1.67-.5 2.49-.33.8-.78 1.56-1.33 2.31a15.9 15.9 0 0 1-1.86 2.1c-.68.65-1.37 1.24-2.07 1.78a27.24 27.24 0 0 1-3.74 2.31l-.74-1a14.4 14.4 0 0 0 3-2.2 19.15 19.15 0 0 0 2.97-3.57 11 11 0 0 0 .97-2.1 6.8 6.8 0 0 0 .37-2.17c0-.7-.19-1.27-.56-1.73-.36-.47-.95-.7-1.76-.7-.96 0-2 .25-3.13.75a16.75 16.75 0 0 0-3.47 2.1c-1.19.9-2.39 2-3.6 3.26a45.4 45.4 0 0 0-6.55 9.04 43.96 43.96 0 0 0-2.48 5.4 38.41 38.41 0 0 0-1.67 5.67c-.4 1.92-.6 3.83-.6 5.73 0 .87.06 1.69.19 2.43.13.74.34 1.37.63 1.9.3.53.68.93 1.15 1.22.48.3 1.06.44 1.76.44.88 0 1.75-.2 2.6-.58.84-.4 1.66-.95 2.46-1.63.8-.69 1.56-1.48 2.3-2.4.75-.9 1.45-1.88 2.1-2.92.65-1.04 1.25-2.1 1.8-3.2.58-1.1 1.08-2.18 1.52-3.26a89.84 89.84 0 0 1 1.25-8.65c.13-.58.24-.94.34-1.07.07-.12.2-.25.42-.4a5.8 5.8 0 0 1 2.25-.85c.49 0 .73.25.73.74a15 15 0 0 1-.1 1.58 28.6 28.6 0 0 1-1.2 5.65c-.13 1.78-.23 3.48-.31 5.12a93.14 93.14 0 0 0-.13 4.63zm10.3-1.55v-4.51l-.03-1.69c0-.78.01-1.35.05-1.7.01-.38.04-.64.1-.78.08-.23.22-.4.43-.54.23-.13.47-.23.71-.3.25-.07.5-.12.74-.14l.56-.02c.3 0 .51.09.6.27.1.18.16.45.16.82v2.3c0 .68-.02 1.36-.05 2.04.3-.73.66-1.42 1.07-2.07.43-.66.89-1.24 1.4-1.73.5-.5 1.03-.9 1.58-1.2a3.82 3.82 0 0 1 3.57.03c.49.3.87.7 1.15 1.24.3.54.5 1.17.64 1.9.14.72.24 1.5.29 2.35.45-.83.94-1.6 1.47-2.32.53-.73 1.1-1.37 1.68-1.9.6-.54 1.23-.96 1.88-1.27a4.9 4.9 0 0 1 2.08-.46c1.24 0 2.14.39 2.71 1.17.57.76.86 1.8.86 3.12 0 .83-.07 1.75-.2 2.78a281 281 0 0 1-.41 3.12l-.42 3.07c-.13 1-.2 1.92-.2 2.75 0 1 .26 1.51.76 1.51.27 0 .55-.15.86-.46.31-.33.66-.81 1.05-1.46.4-.67.87-1.5 1.4-2.51.53-1.01 1.15-2.21 1.85-3.61l.25-.51.78.6a15.23 15.23 0 0 0 0 .61l-.03.05c-.96 1.92-1.78 3.5-2.47 4.76a27.34 27.34 0 0 1-1.8 3 5.67 5.67 0 0 1-1.54 1.53c-.48.3-1 .44-1.6.44-.34 0-.67-.05-1-.15-.32-.1-.6-.26-.85-.5a2.59 2.59 0 0 1-.59-.98 4.96 4.96 0 0 1-.22-1.61c0-.98.07-2.07.2-3.3.13-1.21.28-2.43.44-3.65l.44-3.43c.13-1.1.2-1.98.2-2.66 0-.6-.14-1.08-.4-1.44-.26-.37-.65-.56-1.17-.56-.52 0-1.07.2-1.64.6-.55.42-1.1.94-1.63 1.6-.52.63-1.02 1.34-1.5 2.14-.45.8-.85 1.58-1.2 2.36 0 1.7 0 3.2-.04 4.49a65.93 65.93 0 0 1-.15 3.21c-.05.88-.12 1.58-.22 2.1-.1.5-.2.85-.31 1.02-.09.12-.23.22-.42.32a5.18 5.18 0 0 1-1.83.44c-.26 0-.5-.07-.69-.22-.18-.16-.27-.47-.27-.93a10.3 10.3 0 0 1 .22-2.04l.22-1.42.25-1.53.05-1.64.05-1.77.02-1.71c.02-.55.02-1.02.02-1.41 0-.83-.02-1.59-.07-2.27a8.17 8.17 0 0 0-.3-1.76 2.6 2.6 0 0 0-.55-1.12 1.22 1.22 0 0 0-.96-.41c-.47 0-.93.17-1.37.51-.42.33-.83.78-1.22 1.37-.39.56-.77 1.24-1.15 2.02-.36.76-.71 1.58-1.07 2.46v.3l-.15 4.55c-.03 1.6-.05 3.36-.05 5.26 0 .33-.11.6-.34.83-.21.21-.46.4-.76.54a4.51 4.51 0 0 1-1.66.39c-.24 0-.47-.07-.68-.22-.22-.15-.32-.47-.32-.97 0-.25.02-.55.07-.9.05-.38.12-.78.2-1.2.06-.42.14-.85.24-1.3.08-.45.16-.87.25-1.26v-3.73l-.01-.54.06-.12zm29.37-.12a12.19 12.19 0 0 1 1.46-5.5c.43-.77.9-1.45 1.42-2.01.52-.59 1.03-1.07 1.54-1.44.5-.38.96-.65 1.37-.83.42-.2.74-.3.95-.3l.32.86a6.74 6.74 0 0 0-1.79 2.05c-.45.74-.87 1.74-1.24 2.97a16.77 16.77 0 0 0-.54 4.6c0 1.13.1 2.22.32 3.27.21 1.06.52 2 .93 2.8.4.82.9 1.47 1.49 1.96.6.48 1.28.73 2.03.73 1.02 0 1.87-.41 2.54-1.22a8.08 8.08 0 0 0 1.51-3.39 7.27 7.27 0 0 1-2.42-1 8.55 8.55 0 0 1-3.95-7.38c0-.91.11-1.71.34-2.4.24-.7.56-1.27.95-1.72a3.82 3.82 0 0 1 5.03-.83c.7.37 1.34.94 1.91 1.7a9.15 9.15 0 0 1 1.4 2.83c.35 1.14.53 2.46.53 3.97a14.4 14.4 0 0 1-.39 3.3c.78-.23 1.49-.6 2.13-1.1a5.85 5.85 0 0 0 1.61-2l.27-.51 1 .75-.27.51a7.13 7.13 0 0 1-5.2 3.93c-.3.83-.68 1.6-1.15 2.31a8.6 8.6 0 0 1-1.6 1.83 6.61 6.61 0 0 1-4.39 1.66 7.31 7.31 0 0 1-3.4-.78 8.07 8.07 0 0 1-2.54-2.15c-.7-.9-1.24-1.96-1.61-3.16a13.13 13.13 0 0 1-.56-3.69l.22-.46zm7.55-4.03c0 .96.13 1.85.39 2.66.28.8.64 1.5 1.1 2.12.45.6.98 1.1 1.59 1.5.6.42 1.24.7 1.93.86a23.42 23.42 0 0 0 .2-2.95c0-1.15-.1-2.2-.28-3.12-.17-.94-.41-1.74-.7-2.39a4.5 4.5 0 0 0-1.03-1.53c-.4-.36-.8-.54-1.2-.54-.55 0-1.02.3-1.42.9-.39.59-.58 1.42-.58 2.5zm12.95 3.95l.24-.51c.25-.49.47-1 .66-1.51a21.4 21.4 0 0 0 .88-2.7c.09-.38.14-.67.17-.86a4.5 4.5 0 0 1-1.22-.32c-.39-.16-.73-.38-1.02-.66-.3-.27-.53-.6-.69-.97a2.9 2.9 0 0 1-.07-2.27c.13-.3.3-.53.54-.73.2-.2.45-.34.73-.44.26-.11.54-.17.83-.17a2.09 2.09 0 0 1 1.76.9c.2.26.34.57.44.93.1.34.15.7.15 1.07.45 0 .94-.06 1.46-.2a58.33 58.33 0 0 0 3.2-.85 6 6 0 0 1 1.45-.2c.37 0 .67.09.9.25.23.15.34.4.34.76 0 .26-.08.69-.24 1.29l-.56 2.1-.76 2.6a73 73 0 0 0-1.32 5.58c-.15.9-.22 1.7-.22 2.4 0 .87.1 1.46.3 1.77.19.31.54.47 1.04.47.21 0 .48-.1.78-.27.33-.2.72-.56 1.18-1.1.45-.55 1-1.33 1.61-2.34a52 52 0 0 0 2.2-4.02l.25-.51 1 .75-.25.51a66.56 66.56 0 0 1-2.61 4.8 21.13 21.13 0 0 1-2.13 2.98 6.39 6.39 0 0 1-1.8 1.54c-.58.27-1.15.4-1.72.4a2.9 2.9 0 0 1-2.34-1.09c-.6-.73-.9-1.86-.9-3.38 0-.83.1-1.7.33-2.59a31.3 31.3 0 0 1 2-5.29l1.2-2.43c.4-.78.75-1.5 1.06-2.17.3-.67.53-1.25.66-1.76l-.15-.15c-.26 0-.61.14-1.05.42l-1.5.95c-.53.34-1.1.67-1.73.97-.62.31-1.24.5-1.88.57-.03.22-.1.56-.22 1-.1.43-.24.92-.41 1.46a30.88 30.88 0 0 1-1.33 3.26l-.24.51zm1.2-9.77a.5.5 0 0 0-.52.48c0 .2.05.37.15.52.1.13.22.24.37.34.14.08.29.14.44.2.16.02.3.04.41.04 0-.45-.07-.83-.22-1.12-.14-.31-.36-.46-.63-.46z"/></defs><use fill="#fff" xlink:href="#a" transform="translate(-1898 -41)"/></svg>