<svg xmlns="http://www.w3.org/2000/svg" xmlns:xlink="http://www.w3.org/1999/xlink" width="174" height="99" viewBox="0 0 174 99"><defs><path id="a" d="M222.64 115.73c0 2.21-1.08 3.25-3.28 3.25-2.27 0-3.33-1.1-3.33-3.97v-2.78c0-2.91 1.13-3.94 3.4-3.94 2.3 0 3.08 1.03 3.17 3.02h-.84c-.08-1.3-.5-2.17-2.33-2.17-1.9 0-2.5.88-2.5 3.09v2.73c0 2.15.43 3.14 2.43 3.14s2.4-.88 2.43-2.37zm10.22.32c0 1.9-.98 2.91-3.12 2.91-2.27 0-3.33-1.04-3.33-3.9v-2.82c0-2.87 1.06-3.97 3.33-3.97 2.43 0 3.24 1.2 3.24 3.97v1.57h-5.71v1.18c0 2.14.5 3.17 2.47 3.17 1.93 0 2.3-.87 2.3-2.1zm-.67-3.07v-.72c0-2.01-.36-3.23-2.45-3.23-1.95 0-2.47.97-2.47 3.18v.77zm3.83-3.74v-.82h6.69v.82h-2.9v9.62h-.89v-9.62zm13.1 4.19h-2.3v4.62h2.3c1.68 0 2.42-.72 2.42-2.3 0-1.6-.74-2.32-2.42-2.32zm-3.19 5.43v-10.44h.88v4.18h2.31c2.06 0 3.32.9 3.32 3.15 0 2.24-1.26 3.1-3.32 3.1h-3.19zm24.22-.81v2.82h-.84v-2.01h-6.67v-10.44h.92v9.63h4.72v-9.63h.88v9.63zm3.43-9.69h3.06c1.84 0 2.96.83 2.96 2.6 0 .89-.3 1.93-1.25 2.22 1.5.23 1.57 1.36 1.57 2.62 0 2.23-.77 3.13-3.39 3.13h-2.95zm.92.83v3.7h2.05c1.62 0 2.13-.72 2.13-1.85 0-1.37-.61-1.85-2.04-1.85zm2.03 8.91c2.27 0 2.44-.77 2.45-2.24.04-1.51-.21-2.18-1.94-2.18h-2.54v4.42zm13.6-2.05c0 1.9-.98 2.91-3.12 2.91-2.27 0-3.34-1.04-3.34-3.9v-2.82c0-2.87 1.07-3.97 3.34-3.97 2.43 0 3.24 1.2 3.24 3.97v1.57h-5.71v1.18c0 2.14.5 3.17 2.47 3.17 1.93 0 2.3-.87 2.3-2.1zm-.67-3.07v-.72c0-2.01-.36-3.23-2.45-3.23-1.95 0-2.47.97-2.47 3.18v.77zm3.83-3.74v-.82h6.69v.82h-2.9v9.62h-.89v-9.62zm15.5 5.77v-2.78c0-2.27-.36-3.13-2.44-3.13-1.94 0-2.43.88-2.43 3.09v2.79c0 2.26.36 3.18 2.43 3.18 1.95 0 2.44-.94 2.44-3.15zm-5.77.04v-2.88c0-2.96 1.06-3.92 3.33-3.92s3.34.89 3.34 3.98v2.82c0 2.9-1.07 3.93-3.34 3.93-2.27 0-3.33-.88-3.33-3.93zm11.28-6.63v3.29c0 2.19.4 3.05 2.34 3.05 1.58 0 2.34-.72 2.34-2.6v-3.74h.9v10.44h-.92v-4.3c-.43.8-1.53 1.1-2.32 1.1-2.33 0-3.26-1.04-3.26-3.97v-3.27zm10.52 0v4.63h4.9v-4.63h.88v10.44h-.88v-5h-4.9v5h-.88v-10.44zm13.04 5.01h-2.31v4.62h2.3c1.68 0 2.42-.72 2.42-2.3 0-1.6-.74-2.32-2.41-2.32zm-3.2 5.43v-10.44h.89v4.18h2.3c2.06 0 3.32.9 3.32 3.15 0 2.24-1.26 3.1-3.31 3.1h-3.2zm8.39-10.44h.88v10.44h-.88zm4.03 10.44l2.94-5.43-2.76-5.01h1.01l1.3 2.39 1 2 1.04-2.06 1.31-2.33h1.01l-2.83 5.01 3 5.43h-1.05l-1.44-2.72-1.05-2.1-1.12 2.21-1.37 2.6zm-106.21 12.53l.12 3.67v4.76h-.88v-10.44h.77l1.95 4.46 1.14 2.85 1.1-2.76 2-4.55h.75v10.44h-.88v-4.76l.1-3.67-2.95 6.85h-.29zm16.77 8.43l-.02-1.4c-.72 1.17-1.69 1.5-3.1 1.5-1.72 0-2.93-.8-2.93-2.8 0-2.6 2.25-3.14 5.95-2.85v-1.56c.01-1.87-.64-2.66-2.3-2.66-1.49 0-2.28.4-2.28 2.4h-.87c0-2.2.89-3.21 3.16-3.21 2.12 0 3.15 1 3.15 3.45v7.13zm-.1-4.69c-3.45-.34-5.05.18-5.05 2.01 0 1.35.77 1.93 2.36 1.93 2 0 2.69-1.51 2.69-2.6zm9.93-4.89h-3.93v9.58h-.9v-10.44h4.83zm9.17 9.58l-.02-1.4c-.72 1.17-1.7 1.5-3.1 1.5-1.73 0-2.94-.8-2.94-2.8 0-2.6 2.26-3.14 5.95-2.85v-1.56c.02-1.87-.63-2.66-2.29-2.66-1.5 0-2.29.4-2.29 2.4h-.86c0-2.2.88-3.21 3.15-3.21 2.13 0 3.16 1 3.16 3.45v7.13zm-.11-4.69c-3.44-.34-5.04.18-5.04 2.01 0 1.35.77 1.93 2.36 1.93 2 0 2.68-1.51 2.68-2.6zm7.74-5.08c-1.3 0-2 .25-2.07 1.7h-.83c0-1.87 1.06-2.53 2.92-2.53 1.7 0 2.95.7 2.95 2.64 0 .9-.45 1.8-1.39 2.27 1.27.48 1.64 1.61 1.64 2.73 0 2.28-1.31 3.14-3.22 3.14-1.88 0-3-.68-3-2.75h.84c0 1.57.8 1.92 2.16 1.92 1.37 0 2.36-.5 2.36-2.2 0-1.6-.74-2.41-2.4-2.41h-1.13v-.8h1.12c1.2 0 2.12-.53 2.12-1.88 0-1.3-.76-1.83-2.07-1.83zm7.96 8.03l.77-1.44 4.26-7.28h.74v10.39h-.89v-8.72l-1.31 2.41-3.68 6.3h-.77v-10.38h.88zm10.71-8.7v4.64h4.9v-4.64h.88v10.44h-.88v-5h-4.9v5h-.88v-10.44zm15.45 6.6v-2.79c0-2.26-.36-3.13-2.43-3.13-1.95 0-2.43.88-2.43 3.1v2.78c0 2.26.36 3.18 2.43 3.18 1.95 0 2.43-.93 2.43-3.14zm-5.76.03v-2.87c0-2.97 1.06-3.92 3.33-3.92s3.33.88 3.33 3.97v2.82c0 2.91-1.06 3.94-3.33 3.94s-3.33-.88-3.33-3.94zm10.55-6.68h3.07c1.83 0 2.95.82 2.95 2.6 0 .88-.29 1.93-1.24 2.21 1.5.24 1.56 1.37 1.56 2.63 0 2.22-.77 3.12-3.38 3.12h-2.96zm.92.82v3.7h2.05c1.63 0 2.13-.71 2.13-1.85 0-1.36-.61-1.85-2.03-1.85zm2.04 8.92c2.27 0 2.43-.78 2.45-2.25.03-1.5-.22-2.17-1.95-2.17h-2.54v4.42zM217 41.05c.23.61.5 1.54.83 2.77a302.98 302.98 0 0 1 2.3 9.48c.44 1.9.87 3.8 1.3 5.76a2775.29 2775.29 0 0 1 2.44 11.07l.95 4.33.69 2.88a358.36 358.36 0 0 0 2.81-7.73 2049.58 2049.58 0 0 0 3.62-10.43 622.74 622.74 0 0 1 3.73-10.4c.59-1.6 1.14-3.05 1.67-4.37a71.26 71.26 0 0 1 1.44-3.36l2 .24c-.3 1.02-.59 2.22-.88 3.58a110.3 110.3 0 0 0-1.61 9.41 135.95 135.95 0 0 0-1.08 10.53c-.1 1.74-.14 3.4-.14 4.97 0 3.07.22 5.4.66 7 .44 1.59 1.12 2.39 2.05 2.39.4 0 .8-.17 1.17-.5.4-.32.8-.8 1.22-1.45.44-.65.9-1.46 1.4-2.42l1.7-3.36.25-.51 1 .75-.24.51c-.82 1.63-1.55 3.05-2.2 4.27a23.6 23.6 0 0 1-1.86 3.02 7.36 7.36 0 0 1-1.78 1.83c-.59.4-1.23.6-1.93.6-.98 0-1.8-.23-2.45-.7a5.26 5.26 0 0 1-1.58-2.04 12.5 12.5 0 0 1-.86-3.25 33.9 33.9 0 0 1-.24-4.29c0-1.73.09-3.55.26-5.46a134.86 134.86 0 0 1 2.13-14.4l-11.02 31.4-2-.5c0-.34-.11-1.06-.32-2.16-.21-1.13-.5-2.47-.83-4.05-.35-1.6-.74-3.34-1.18-5.24a1572.31 1572.31 0 0 0-4.94-20.94l.18 3.54a172.29 172.29 0 0 1 .2 6.53c0 2.94-.18 5.55-.52 7.82a33.7 33.7 0 0 1-1.34 5.95 18.34 18.34 0 0 1-2 4.24 12.2 12.2 0 0 1-2.45 2.78c-.86.7-1.75 1.2-2.67 1.51-.9.3-1.77.46-2.63.46a6.6 6.6 0 0 1-2.42-.44 5.85 5.85 0 0 1-3.33-2.97 5.08 5.08 0 0 1-.51-2.26c0-.96.16-1.88.49-2.76.3-.88.75-1.7 1.32-2.46.55-.78 1.21-1.5 1.98-2.17.76-.67 1.59-1.28 2.47-1.85l.73.75a11.37 11.37 0 0 0-3.06 3.24 8.74 8.74 0 0 0-.88 1.95 6.65 6.65 0 0 0-.31 2.03 4.93 4.93 0 0 0 1.2 3.24 4.17 4.17 0 0 0 3.15 1.36 6.02 6.02 0 0 0 4.25-1.82c.7-.67 1.36-1.54 1.98-2.61a17.74 17.74 0 0 0 1.64-4c.47-1.6.84-3.45 1.12-5.58a57.8 57.8 0 0 0 .34-10.16c-.03-1.08-.09-2.2-.17-3.37a124.9 124.9 0 0 0-.9-9.48c-.12-.78-.23-1.35-.35-1.7zm30.77 30.15l-.24.48-.25.51-1-.75.24-.51a25.23 25.23 0 0 0 1.66-4.85l.45-1.93c.11-.55.22-.95.34-1.2.1-.19.23-.34.41-.46a3.45 3.45 0 0 1 1.18-.48c.2-.04.33-.05.41-.05.36 0 .6.07.7.22.14.14.2.4.2.78a1820.78 1820.78 0 0 0-.37 4l-.24 3.58c-.06 1.31-.1 2.68-.1 4.1 0 1.02.06 1.83.15 2.43.1.58.22 1.02.37 1.32.16.29.33.47.51.56.2.08.4.12.59.12.26 0 .55-.12.88-.34.33-.23.7-.63 1.15-1.2.44-.58.94-1.36 1.51-2.34.57-.99 1.24-2.24 2-3.75l.28-.51 1 .75-.27.51c-.62 1.2-1.24 2.4-1.86 3.56a27.3 27.3 0 0 1-1.86 3.12c-.61.91-1.24 1.65-1.88 2.22-.63.55-1.27.83-1.9.83-.67 0-1.25-.13-1.74-.39a3.25 3.25 0 0 1-1.2-1.34 8.54 8.54 0 0 1-.7-2.44 27.17 27.17 0 0 1-.22-3.78v-1.31c0-.47.01-.96.04-1.46zm5-14.24a1.95 1.95 0 0 1-2 2 1.98 1.98 0 0 1-2-2c0-.55.2-1.02.59-1.41.39-.4.86-.59 1.42-.59.57 0 1.04.2 1.41.59.4.39.59.86.59 1.41zm43.04 16.23c0 1.43.04 2.56.1 3.4.08.82.2 1.45.34 1.87.17.42.37.69.61.8.25.12.53.17.86.17.44 0 .9-.13 1.37-.41.47-.28.94-.63 1.4-1.07.45-.44.88-.93 1.29-1.47a27.26 27.26 0 0 0 2.64-4.04l.75-1.51.95.7v.17l-.7 1.4-.64 1.19a25.7 25.7 0 0 1-2.59 3.85c-.55.7-1.15 1.34-1.78 1.92a9.72 9.72 0 0 1-2 1.44 4.52 4.52 0 0 1-3.94.22 2.97 2.97 0 0 1-1.32-1.2 7.24 7.24 0 0 1-.83-2.36c-.18-1-.27-2.28-.27-3.82 0-.6 0-1.17.02-1.7l.13-2c-.83 1.6-1.8 3.15-2.89 4.65a26.73 26.73 0 0 1-3.47 3.97 16.88 16.88 0 0 1-3.88 2.75 8.67 8.67 0 0 1-4.06 1.05c-.86 0-1.69-.15-2.47-.46a5.75 5.75 0 0 1-2.07-1.41 7.11 7.11 0 0 1-1.45-2.49c-.36-1-.53-2.21-.53-3.6 0-2.25.25-4.45.75-6.61a34.79 34.79 0 0 1 2.06-6.27 44.43 44.43 0 0 1 6.94-10.94 39.3 39.3 0 0 1 8.8-7.56c1.5-.9 2.95-1.6 4.37-2.1a12.5 12.5 0 0 1 4-.72c1.38 0 2.47.35 3.28 1.05a3.6 3.6 0 0 1 1.22 2.92c0 .85-.17 1.67-.51 2.49-.33.8-.77 1.56-1.32 2.31-.54.73-1.16 1.43-1.86 2.1-.68.65-1.37 1.24-2.07 1.78a26.96 26.96 0 0 1-3.74 2.31l-.74-1a14.46 14.46 0 0 0 3-2.2 19.15 19.15 0 0 0 2.97-3.57c.4-.69.73-1.38.97-2.1.25-.73.37-1.45.37-2.17 0-.7-.19-1.27-.56-1.73-.36-.47-.95-.7-1.76-.7-.96 0-2 .25-3.13.75a16.73 16.73 0 0 0-3.47 2.1c-1.19.9-2.39 2-3.6 3.26a45.3 45.3 0 0 0-6.55 9.04 43.87 43.87 0 0 0-2.48 5.4 38.33 38.33 0 0 0-1.67 5.67c-.4 1.92-.6 3.83-.6 5.73 0 .87.06 1.69.19 2.43.13.74.34 1.37.63 1.9.3.53.68.93 1.15 1.22.48.3 1.06.44 1.76.44.88 0 1.75-.2 2.6-.58.84-.4 1.66-.95 2.46-1.63.8-.69 1.57-1.48 2.3-2.4.75-.9 1.45-1.88 2.1-2.92.65-1.04 1.26-2.1 1.8-3.2.58-1.1 1.08-2.18 1.52-3.26a88.53 88.53 0 0 1 1.25-8.65c.13-.58.24-.94.34-1.07.07-.12.2-.25.42-.4a5.84 5.84 0 0 1 2.25-.85c.48 0 .73.25.73.74a15 15 0 0 1-.1 1.58 29.05 29.05 0 0 1-1.2 5.65c-.13 1.78-.23 3.48-.31 5.12a93.14 93.14 0 0 0-.13 4.63zm10.3-1.55v-4.51l-.03-1.69c0-.78.01-1.35.05-1.7.01-.38.04-.64.1-.78.08-.23.22-.4.43-.54.23-.13.47-.23.71-.3.25-.07.5-.12.74-.14l.56-.02c.3 0 .51.09.6.27.1.18.16.45.16.83v2.29c0 .68-.02 1.36-.05 2.04.3-.73.66-1.42 1.07-2.07.42-.66.89-1.24 1.4-1.73.5-.5 1.03-.9 1.58-1.2a3.82 3.82 0 0 1 3.57.03c.49.3.87.7 1.15 1.24.3.54.5 1.17.64 1.9.14.72.24 1.5.29 2.35.46-.83.94-1.6 1.47-2.32a12.9 12.9 0 0 1 1.68-1.9c.6-.54 1.23-.96 1.88-1.27a4.9 4.9 0 0 1 2.08-.46c1.24 0 2.14.39 2.71 1.17.57.76.86 1.8.86 3.12 0 .83-.07 1.75-.2 2.78l-.41 3.12-.42 3.07c-.13 1-.2 1.92-.2 2.75 0 1 .26 1.51.76 1.51.26 0 .55-.15.86-.46.3-.33.66-.81 1.05-1.46.4-.67.87-1.5 1.4-2.51.53-1.01 1.15-2.21 1.85-3.61l.25-.51.78.6a15.15 15.15 0 0 0 0 .61l-.03.05c-.96 1.92-1.78 3.5-2.46 4.76a27.45 27.45 0 0 1-1.81 3 5.68 5.68 0 0 1-1.54 1.53c-.48.3-1 .44-1.6.44-.33 0-.67-.05-1-.15a2 2 0 0 1-.85-.5 2.59 2.59 0 0 1-.59-.98 4.98 4.98 0 0 1-.22-1.61c0-.98.07-2.07.2-3.3.13-1.21.28-2.43.44-3.65l.44-3.43c.13-1.1.2-1.98.2-2.66 0-.6-.14-1.08-.4-1.44-.26-.37-.65-.56-1.17-.56-.52 0-1.07.2-1.64.6-.55.42-1.1.94-1.63 1.6-.53.63-1.02 1.34-1.5 2.14-.45.8-.85 1.58-1.2 2.36 0 1.7 0 3.2-.04 4.49a67.58 67.58 0 0 1-.15 3.21c-.05.88-.12 1.58-.22 2.1-.1.5-.2.85-.32 1.02a1.1 1.1 0 0 1-.41.32 5.13 5.13 0 0 1-1.83.44c-.26 0-.5-.07-.69-.22-.18-.16-.27-.47-.27-.93a10.24 10.24 0 0 1 .22-2.04 92.43 92.43 0 0 1 .47-2.95l.05-1.64.05-1.77.02-1.71.02-1.41c0-.83-.02-1.59-.07-2.27a8.26 8.26 0 0 0-.3-1.76 2.6 2.6 0 0 0-.55-1.12 1.21 1.21 0 0 0-.96-.41c-.47 0-.93.17-1.37.51-.42.33-.83.78-1.22 1.37-.39.56-.77 1.24-1.15 2.02-.36.76-.71 1.58-1.07 2.46v.3l-.15 4.55c-.03 1.6-.05 3.36-.05 5.26 0 .33-.11.6-.34.83a2.9 2.9 0 0 1-.76.54 4.52 4.52 0 0 1-1.66.39c-.24 0-.47-.07-.68-.22-.22-.15-.32-.47-.32-.97 0-.25.02-.55.07-.9.05-.38.12-.78.2-1.2.06-.42.14-.85.24-1.3.08-.45.16-.87.25-1.26v-3.73l-.01-.54.06-.12zm29.37-.12a12.15 12.15 0 0 1 1.46-5.5c.43-.77.9-1.45 1.42-2.01.52-.59 1.03-1.07 1.54-1.44.5-.38.96-.65 1.37-.83.42-.2.74-.3.95-.3l.32.86a6.75 6.75 0 0 0-1.79 2.05c-.45.74-.87 1.74-1.24 2.97a16.8 16.8 0 0 0-.54 4.6c0 1.13.1 2.22.32 3.27.21 1.06.52 2 .93 2.8.4.82.9 1.47 1.49 1.96.6.48 1.28.73 2.03.73 1.02 0 1.87-.41 2.54-1.22a8.07 8.07 0 0 0 1.51-3.39 7.27 7.27 0 0 1-2.42-1 8.54 8.54 0 0 1-3.95-7.38c0-.91.1-1.71.34-2.4.24-.7.56-1.27.95-1.72a3.82 3.82 0 0 1 5.03-.83c.7.37 1.34.94 1.91 1.7a9.2 9.2 0 0 1 1.4 2.83c.35 1.14.53 2.46.53 3.97a14.56 14.56 0 0 1-.39 3.3 6.16 6.16 0 0 0 3.74-3.1l.27-.51 1 .75-.27.51a7.12 7.12 0 0 1-5.2 3.93c-.3.83-.68 1.6-1.15 2.31-.46.7-.99 1.31-1.6 1.83a6.63 6.63 0 0 1-4.4 1.66 7.3 7.3 0 0 1-3.39-.78 8.05 8.05 0 0 1-2.54-2.15c-.7-.9-1.24-1.96-1.61-3.16a13.15 13.15 0 0 1-.56-3.69l.22-.46zm7.55-4.03c0 .96.13 1.85.39 2.66.27.8.64 1.5 1.1 2.12.46.6.98 1.1 1.59 1.5.6.42 1.24.7 1.93.86a23.42 23.42 0 0 0 .2-2.95c0-1.15-.1-2.2-.28-3.12-.17-.94-.41-1.74-.7-2.39a4.52 4.52 0 0 0-1.03-1.53c-.4-.36-.8-.54-1.2-.54-.55 0-1.03.3-1.42.9-.39.59-.58 1.42-.58 2.5zm12.95 3.95l.24-.51c.25-.49.47-1 .66-1.51a21.01 21.01 0 0 0 .88-2.7l.17-.86a4.48 4.48 0 0 1-1.22-.32c-.39-.16-.73-.38-1.02-.66-.3-.27-.53-.6-.69-.97a2.89 2.89 0 0 1-.07-2.27c.13-.3.3-.53.54-.73.2-.2.45-.34.73-.44.26-.11.54-.17.83-.17a2.09 2.09 0 0 1 1.76.9c.2.26.34.57.44.93.1.34.15.7.15 1.07.45 0 .94-.06 1.46-.2a58.95 58.95 0 0 0 3.2-.85 6 6 0 0 1 1.45-.2c.37 0 .67.09.9.25.23.15.34.4.34.76 0 .26-.08.69-.24 1.29l-.56 2.1a73.01 73.01 0 0 0-2.08 8.19c-.15.89-.22 1.68-.22 2.38 0 .88.1 1.47.3 1.78.19.31.54.47 1.04.47.21 0 .48-.1.78-.27.33-.2.72-.56 1.18-1.1.45-.55 1-1.33 1.61-2.34a52.67 52.67 0 0 0 2.2-4.02l.24-.51 1 .75-.24.51a66.22 66.22 0 0 1-2.61 4.8 21.02 21.02 0 0 1-2.13 2.98 6.4 6.4 0 0 1-1.8 1.54c-.58.27-1.15.4-1.72.4a2.9 2.9 0 0 1-2.34-1.09c-.6-.73-.9-1.86-.9-3.38 0-.83.1-1.7.33-2.59a23 23 0 0 1 .86-2.66c.34-.89.72-1.77 1.15-2.63l1.2-2.43c.39-.78.74-1.5 1.05-2.17.3-.67.52-1.25.66-1.76l-.15-.15c-.26 0-.61.14-1.05.42l-1.5.95c-.53.34-1.1.67-1.73.97-.62.31-1.24.5-1.88.57-.03.22-.1.56-.22 1-.1.43-.24.92-.41 1.46a30.85 30.85 0 0 1-1.32 3.26l-.25.51zm1.2-9.77a.5.5 0 0 0-.37.14c-.1.1-.15.21-.15.34 0 .2.05.37.15.52.1.13.22.24.37.34.14.08.3.14.44.2.16.02.3.04.41.04 0-.45-.07-.83-.22-1.12-.14-.31-.36-.46-.63-.46z"/></defs><use fill="#fff" xlink:href="#a" transform="translate(-198 -41)"/></svg>