<svg xmlns="http://www.w3.org/2000/svg" xmlns:xlink="http://www.w3.org/1999/xlink" width="113" height="18" viewBox="0 0 113 18"><defs><path id="a" d="M1072.24 4926.57v-8.94h2.4v8.94zm10.76.02h-2.4v-6.94h-2.62v-2.02h7.63v2.01h-2.6zm4.79-4.47c0-2.77 2.18-4.64 5.05-4.64a4.32 4.32 0 0 1 4.06 2.39l-2.07.94c-.3-.71-1.1-1.3-2-1.3a2.52 2.52 0 0 0-2.6 2.6c0 1.46 1.07 2.58 2.6 2.58.9 0 1.7-.58 2-1.29l2.07.94a4.35 4.35 0 0 1-4.06 2.4c-2.87 0-5.06-1.89-5.05-4.62zm13.7 1.18c-.66 0-1.18-.5-1.18-1.12 0-.63.53-1.12 1.17-1.12.66 0 1.17.5 1.17 1.12 0 .62-.5 1.12-1.17 1.12zm12.89 3.27v-5.82l-2.9 3.42-2.9-3.42v5.82h-2.4v-8.94h2.87l2.42 3.37 2.45-3.37h2.87v8.94zm6.66 0v-8.94h6.84v2.01h-4.44v1.4h3.63v2.02h-3.63v1.5h4.44v2.01zm14.82 0h-3.94v-8.94h3.93c2.94 0 5.04 1.69 5.04 4.47 0 2.79-2.11 4.47-5.03 4.47zm-.04-2c1.64 0 2.59-1.14 2.59-2.47 0-1.38-.88-2.45-2.58-2.45h-1.51v4.92zm8.3 2v-8.94h2.4v8.94zm15.87 0h-2.72l-.47-1.28h-3.68l-.47 1.28h-2.73l3.52-8.94h3.03zm-3.85-3.3l-1.18-3.37-1.18 3.37zm-107.1-6.84c.68-1.3 3.46-2.84 5.82-3.25 1.87-.33 3.07-.17 3.05.4a10.6 10.6 0 0 1-1.22 3.11 6.56 6.56 0 0 1-2.9 2.73c-.74.29-.84.3-1.47.1a8.47 8.47 0 0 1-2.75-1.78c-.71-.77-.76-.89-.53-1.3zm10.56-2.76c1.5.23 3.9 2.29 5.03 4.3.9 1.6 1.1 2.76.54 2.92-.54.15-2.33.07-3.46-.15a6.79 6.79 0 0 1-3.6-1.81c-.52-.57-.56-.67-.56-1.3 0-.75.48-2.32.92-3.06.55-.9.65-.98 1.13-.9zm6.01 8.78c.24 1.43-1.06 4.26-2.71 5.91-1.32 1.3-2.4 1.86-2.72 1.39-.3-.45-.79-2.1-.92-3.2a6.16 6.16 0 0 1 .68-3.85c.42-.64.5-.71 1.13-.9a8.97 8.97 0 0 1 3.32-.1c1.04.2 1.15.28 1.22.75zm-6.85 8.2c-1.35.66-4.56.34-6.71-.66-1.7-.79-2.58-1.6-2.21-2.05a11.2 11.2 0 0 1 2.88-1.82c1.4-.61 2.93-.83 4.03-.58.77.17.86.23 1.24.75a7.92 7.92 0 0 1 1.14 2.99c.1 1.03.07 1.15-.37 1.36zm-10.25-3.73c-1.07-1.02-1.75-4.05-1.42-6.32.25-1.8.79-2.84 1.35-2.65.52.19 1.92 1.27 2.7 2.07a6.3 6.3 0 0 1 1.8 3.5c.07.75.04.84-.34 1.36a8.55 8.55 0 0 1-2.62 1.96c-1 .41-1.11.42-1.47.08z"/></defs><use fill="#111129" xlink:href="#a" opacity=".38" transform="translate(-1047 -4913)"/></svg>